<svg width="18" height="18" viewBox="0 0 18 18" fill="none" xmlns="http://www.w3.org/2000/svg">
<path d="M5.66671 6.75C5.11442 6.75 4.66671 7.19772 4.66671 7.75C4.66671 8.30228 5.11442 8.75 5.66671 8.75V6.75ZM12.3334 8.75C12.8857 8.75 13.3334 8.30228 13.3334 7.75C13.3334 7.19772 12.8857 6.75 12.3334 6.75V8.75ZM5.66671 10.0833C5.11442 10.0833 4.66671 10.531 4.66671 11.0833C4.66671 11.6356 5.11442 12.0833 5.66671 12.0833V10.0833ZM8.16671 12.0833C8.71899 12.0833 9.16671 11.6356 9.16671 11.0833C9.16671 10.531 8.71899 10.0833 8.16671 10.0833V12.0833ZM2.28322 12.334L3.17869 11.8889L2.28322 12.334ZM1.5039 16.5L0.580756 16.1155C0.452223 16.4242 0.486423 16.7766 0.671896 17.0548C0.857368 17.3329 1.16958 17.5 1.5039 17.5V16.5ZM5.66671 8.75H12.3334V6.75H5.66671V8.75ZM5.66671 12.0833H8.16671V10.0833H5.66671V12.0833ZM15.5033 9C15.5033 12.5899 12.5931 15.5 9.00329 15.5V17.5C13.6977 17.5 17.5033 13.6944 17.5033 9H15.5033ZM2.5033 9C2.5033 5.41015 5.41344 2.5 9.00329 2.5V0.5C4.30887 0.5 0.503296 4.30558 0.503296 9H2.5033ZM9.00329 2.5C12.5931 2.5 15.5033 5.41015 15.5033 9H17.5033C17.5033 4.30558 13.6977 0.5 9.00329 0.5V2.5ZM3.17869 11.8889C2.74669 11.0198 2.5033 10.0397 2.5033 9H0.503296C0.503296 10.3555 0.821325 11.6396 1.38775 12.7791L3.17869 11.8889ZM9.00329 15.5C8.99998 15.5 8.99665 15.5 8.9933 15.5C8.98996 15.5 8.9866 15.5 8.98322 15.5C8.97984 15.5 8.97645 15.5 8.97304 15.5C8.96963 15.5 8.96621 15.5 8.96277 15.5C8.95933 15.5 8.95588 15.5 8.95241 15.5C8.94894 15.5 8.94546 15.5 8.94196 15.5C8.93846 15.5 8.93494 15.5 8.93141 15.5C8.92788 15.5 8.92434 15.5 8.92078 15.5C8.91722 15.5 8.91364 15.5 8.91005 15.5C8.90646 15.5 8.90285 15.5 8.89923 15.5C8.89561 15.5 8.89198 15.5 8.88833 15.5C8.88468 15.5 8.88101 15.5 8.87733 15.5C8.87365 15.5 8.86996 15.5 8.86625 15.5C8.86254 15.5 8.85882 15.5 8.85508 15.5C8.85134 15.5 8.84759 15.5 8.84382 15.5C8.84005 15.5 8.83627 15.5 8.83247 15.5C8.82868 15.5 8.82487 15.5 8.82104 15.5C8.81721 15.5 8.81337 15.5 8.80952 15.5C8.80567 15.5 8.8018 15.5 8.79791 15.5C8.79403 15.5 8.79013 15.5 8.78622 15.5C8.78231 15.5 8.77839 15.5 8.77445 15.5C8.77051 15.5 8.76655 15.5 8.76259 15.5C8.75862 15.5 8.75464 15.5 8.75064 15.5C8.74664 15.5 8.74263 15.5 8.73861 15.5C8.73459 15.5 8.73055 15.5 8.7265 15.5C8.72245 15.5 8.71838 15.5 8.7143 15.5C8.71022 15.5 8.70613 15.5 8.70202 15.5C8.69792 15.5 8.6938 15.5 8.68966 15.5C8.68553 15.5 8.68138 15.5 8.67722 15.5C8.67306 15.5 8.66889 15.5 8.6647 15.5C8.66051 15.5 8.65631 15.5 8.6521 15.5C8.64788 15.5 8.64365 15.5 8.63941 15.5C8.63517 15.5 8.63092 15.5 8.62665 15.5C8.62238 15.5 8.6181 15.5 8.61381 15.5C8.60951 15.5 8.60521 15.5 8.60089 15.5C8.59657 15.5 8.59223 15.5 8.58789 15.5C8.58354 15.5 8.57918 15.5 8.57481 15.5C8.57044 15.5 8.56605 15.5 8.56165 15.5C8.55725 15.5 8.55284 15.5 8.54842 15.5C8.544 15.5 8.53956 15.5 8.53511 15.5C8.53066 15.5 8.5262 15.5 8.52172 15.5C8.51725 15.5 8.51276 15.5 8.50826 15.5C8.50376 15.5 8.49925 15.5 8.49473 15.5C8.4902 15.5 8.48566 15.5 8.48111 15.5C8.47656 15.5 8.472 15.5 8.46743 15.5C8.46285 15.5 8.45827 15.5 8.45367 15.5C8.44907 15.5 8.44446 15.5 8.43983 15.5C8.43521 15.5 8.43057 15.5 8.42593 15.5C8.42128 15.5 8.41662 15.5 8.41195 15.5C8.40728 15.5 8.40259 15.5 8.3979 15.5C8.3932 15.5 8.38849 15.5 8.38377 15.5C8.37905 15.5 8.37432 15.5 8.36958 15.5C8.36483 15.5 8.36008 15.5 8.35531 15.5C8.35054 15.5 8.34576 15.5 8.34097 15.5C8.33618 15.5 8.33138 15.5 8.32657 15.5C8.32175 15.5 8.31693 15.5 8.31209 15.5C8.30725 15.5 8.3024 15.5 8.29754 15.5C8.29269 15.5 8.28781 15.5 8.28293 15.5C8.27805 15.5 8.27315 15.5 8.26825 15.5C8.26334 15.5 8.25843 15.5 8.2535 15.5C8.24857 15.5 8.24363 15.5 8.23868 15.5C8.23373 15.5 8.22877 15.5 8.2238 15.5C8.21882 15.5 8.21384 15.5 8.20884 15.5C8.20385 15.5 8.19884 15.5 8.19383 15.5C8.18881 15.5 8.18378 15.5 8.17874 15.5C8.17371 15.5 8.16866 15.5 8.1636 15.5C8.15854 15.5 8.15347 15.5 8.14838 15.5C8.1433 15.5 8.13821 15.5 8.13311 15.5C8.128 15.5 8.12289 15.5 8.11777 15.5C8.11264 15.5 8.10751 15.5 8.10236 15.5C8.09722 15.5 8.09206 15.5 8.08689 15.5C8.08173 15.5 8.07655 15.5 8.07137 15.5C8.06618 15.5 8.06098 15.5 8.05577 15.5C8.05057 15.5 8.04535 15.5 8.04012 15.5C8.03489 15.5 8.02965 15.5 8.02441 15.5C8.01916 15.5 8.0139 15.5 8.00863 15.5C8.00336 15.5 7.99808 15.5 7.99279 15.5C7.98751 15.5 7.98221 15.5 7.9769 15.5C7.97159 15.5 7.96627 15.5 7.96094 15.5C7.95562 15.5 7.95028 15.5 7.94493 15.5C7.93958 15.5 7.93422 15.5 7.92886 15.5C7.92349 15.5 7.91811 15.5 7.91273 15.5C7.90734 15.5 7.90194 15.5 7.89654 15.5C7.89113 15.5 7.88572 15.5 7.88029 15.5C7.87487 15.5 7.86943 15.5 7.86399 15.5C7.85855 15.5 7.8531 15.5 7.84763 15.5C7.84217 15.5 7.8367 15.5 7.83122 15.5C7.82574 15.5 7.82025 15.5 7.81475 15.5C7.80925 15.5 7.80374 15.5 7.79822 15.5C7.79271 15.5 7.78718 15.5 7.78164 15.5C7.77611 15.5 7.77056 15.5 7.76501 15.5C7.75946 15.5 7.7539 15.5 7.74832 15.5C7.74275 15.5 7.73717 15.5 7.73158 15.5C7.726 15.5 7.7204 15.5 7.71479 15.5C7.70918 15.5 7.70357 15.5 7.69795 15.5C7.69232 15.5 7.68669 15.5 7.68105 15.5C7.67541 15.5 7.66976 15.5 7.6641 15.5C7.65844 15.5 7.65277 15.5 7.6471 15.5C7.64142 15.5 7.63574 15.5 7.63005 15.5C7.62436 15.5 7.61866 15.5 7.61295 15.5C7.60724 15.5 7.60152 15.5 7.5958 15.5C7.59007 15.5 7.58434 15.5 7.5786 15.5C7.57286 15.5 7.56711 15.5 7.56135 15.5C7.55559 15.5 7.54983 15.5 7.54406 15.5C7.53828 15.5 7.5325 15.5 7.52671 15.5C7.52092 15.5 7.51512 15.5 7.50932 15.5C7.50351 15.5 7.4977 15.5 7.49188 15.5C7.48606 15.5 7.48023 15.5 7.47439 15.5C7.46856 15.5 7.46271 15.5 7.45686 15.5C7.45101 15.5 7.44515 15.5 7.43929 15.5C7.43342 15.5 7.42755 15.5 7.42166 15.5C7.41578 15.5 7.40989 15.5 7.404 15.5C7.3981 15.5 7.3922 15.5 7.38628 15.5C7.38037 15.5 7.37445 15.5 7.36853 15.5C7.3626 15.5 7.35667 15.5 7.35073 15.5C7.34479 15.5 7.33884 15.5 7.33289 15.5C7.32693 15.5 7.32097 15.5 7.315 15.5C7.30904 15.5 7.30306 15.5 7.29708 15.5C7.29109 15.5 7.2851 15.5 7.27911 15.5C7.27311 15.5 7.26711 15.5 7.2611 15.5C7.25509 15.5 7.24907 15.5 7.24305 15.5C7.23702 15.5 7.23099 15.5 7.22496 15.5C7.21892 15.5 7.21288 15.5 7.20683 15.5C7.20078 15.5 7.19472 15.5 7.18866 15.5C7.18259 15.5 7.17652 15.5 7.17045 15.5C7.16437 15.5 7.15829 15.5 7.1522 15.5C7.14611 15.5 7.14001 15.5 7.13391 15.5C7.12781 15.5 7.1217 15.5 7.11559 15.5C7.10947 15.5 7.10335 15.5 7.09723 15.5C7.0911 15.5 7.08497 15.5 7.07883 15.5C7.07269 15.5 7.06655 15.5 7.0604 15.5C7.05424 15.5 7.04809 15.5 7.04193 15.5C7.03576 15.5 7.02959 15.5 7.02342 15.5C7.01725 15.5 7.01107 15.5 7.00488 15.5C6.99869 15.5 6.9925 15.5 6.9863 15.5C6.98011 15.5 6.9739 15.5 6.96769 15.5C6.96148 15.5 6.95527 15.5 6.94905 15.5C6.94283 15.5 6.9366 15.5 6.93037 15.5C6.92414 15.5 6.91791 15.5 6.91166 15.5C6.90542 15.5 6.89918 15.5 6.89292 15.5C6.88667 15.5 6.88041 15.5 6.87415 15.5C6.86789 15.5 6.86162 15.5 6.85534 15.5C6.84907 15.5 6.84279 15.5 6.83651 15.5C6.83022 15.5 6.82393 15.5 6.81764 15.5C6.81135 15.5 6.80505 15.5 6.79874 15.5C6.79244 15.5 6.78613 15.5 6.77982 15.5C6.7735 15.5 6.76718 15.5 6.76086 15.5C6.75454 15.5 6.74821 15.5 6.74187 15.5C6.73554 15.5 6.7292 15.5 6.72286 15.5C6.71652 15.5 6.71017 15.5 6.70382 15.5C6.69747 15.5 6.69111 15.5 6.68475 15.5C6.67839 15.5 6.67202 15.5 6.66565 15.5C6.65928 15.5 6.65291 15.5 6.64653 15.5C6.64015 15.5 6.63377 15.5 6.62738 15.5C6.621 15.5 6.6146 15.5 6.60821 15.5C6.60181 15.5 6.59541 15.5 6.58901 15.5C6.5826 15.5 6.57619 15.5 6.56978 15.5C6.56337 15.5 6.55695 15.5 6.55053 15.5C6.54411 15.5 6.53769 15.5 6.53126 15.5C6.52483 15.5 6.5184 15.5 6.51196 15.5C6.50553 15.5 6.49909 15.5 6.49264 15.5C6.4862 15.5 6.47975 15.5 6.4733 15.5C6.46685 15.5 6.46039 15.5 6.45394 15.5C6.44748 15.5 6.44101 15.5 6.43455 15.5C6.42808 15.5 6.42161 15.5 6.41514 15.5C6.40867 15.5 6.40219 15.5 6.39571 15.5C6.38923 15.5 6.38275 15.5 6.37626 15.5C6.36978 15.5 6.36329 15.5 6.35679 15.5C6.3503 15.5 6.3438 15.5 6.33731 15.5C6.33081 15.5 6.3243 15.5 6.3178 15.5C6.31129 15.5 6.30478 15.5 6.29827 15.5C6.29176 15.5 6.28524 15.5 6.27873 15.5C6.27221 15.5 6.26569 15.5 6.25916 15.5C6.25264 15.5 6.24611 15.5 6.23958 15.5C6.23305 15.5 6.22652 15.5 6.21999 15.5C6.21345 15.5 6.20691 15.5 6.20037 15.5C6.19383 15.5 6.18729 15.5 6.18074 15.5C6.1742 15.5 6.16765 15.5 6.1611 15.5C6.15455 15.5 6.14799 15.5 6.14144 15.5C6.13488 15.5 6.12832 15.5 6.12176 15.5C6.1152 15.5 6.10864 15.5 6.10208 15.5C6.09551 15.5 6.08894 15.5 6.08237 15.5C6.0758 15.5 6.06923 15.5 6.06266 15.5C6.05608 15.5 6.04951 15.5 6.04293 15.5C6.03635 15.5 6.02977 15.5 6.02319 15.5C6.0166 15.5 6.01002 15.5 6.00343 15.5C5.99685 15.5 5.99026 15.5 5.98367 15.5C5.97708 15.5 5.97049 15.5 5.96389 15.5C5.9573 15.5 5.9507 15.5 5.9441 15.5C5.93751 15.5 5.93091 15.5 5.92431 15.5C5.91771 15.5 5.9111 15.5 5.9045 15.5C5.8979 15.5 5.89129 15.5 5.88468 15.5C5.87808 15.5 5.87147 15.5 5.86486 15.5C5.85825 15.5 5.85164 15.5 5.84503 15.5C5.83841 15.5 5.8318 15.5 5.82518 15.5C5.81857 15.5 5.81195 15.5 5.80533 15.5C5.79872 15.5 5.7921 15.5 5.78548 15.5C5.77886 15.5 5.77224 15.5 5.76561 15.5C5.75899 15.5 5.75237 15.5 5.74574 15.5C5.73912 15.5 5.7325 15.5 5.72587 15.5C5.71924 15.5 5.71262 15.5 5.70599 15.5C5.69936 15.5 5.69273 15.5 5.6861 15.5C5.67947 15.5 5.67284 15.5 5.66621 15.5C5.65958 15.5 5.65295 15.5 5.64632 15.5C5.63969 15.5 5.63305 15.5 5.62642 15.5C5.61979 15.5 5.61315 15.5 5.60652 15.5C5.59989 15.5 5.59325 15.5 5.58662 15.5C5.57998 15.5 5.57335 15.5 5.56671 15.5C5.56007 15.5 5.55344 15.5 5.5468 15.5C5.54017 15.5 5.53353 15.5 5.52689 15.5C5.52026 15.5 5.51362 15.5 5.50698 15.5C5.50035 15.5 5.49371 15.5 5.48707 15.5C5.48043 15.5 5.4738 15.5 5.46716 15.5C5.46052 15.5 5.45389 15.5 5.44725 15.5C5.44061 15.5 5.43398 15.5 5.42734 15.5C5.4207 15.5 5.41407 15.5 5.40743 15.5C5.4008 15.5 5.39416 15.5 5.38753 15.5C5.38089 15.5 5.37426 15.5 5.36762 15.5C5.36099 15.5 5.35435 15.5 5.34772 15.5C5.34109 15.5 5.33445 15.5 5.32782 15.5C5.32119 15.5 5.31456 15.5 5.30793 15.5C5.30129 15.5 5.29466 15.5 5.28803 15.5C5.2814 15.5 5.27478 15.5 5.26815 15.5C5.26152 15.5 5.25489 15.5 5.24826 15.5C5.24164 15.5 5.23501 15.5 5.22839 15.5C5.22176 15.5 5.21514 15.5 5.20852 15.5C5.20189 15.5 5.19527 15.5 5.18865 15.5C5.18203 15.5 5.17541 15.5 5.16879 15.5C5.16217 15.5 5.15556 15.5 5.14894 15.5C5.14232 15.5 5.13571 15.5 5.1291 15.5C5.12248 15.5 5.11587 15.5 5.10926 15.5C5.10265 15.5 5.09604 15.5 5.08943 15.5C5.08282 15.5 5.07622 15.5 5.06961 15.5C5.06301 15.5 5.05641 15.5 5.0498 15.5C5.0432 15.5 5.0366 15.5 5.03 15.5C5.02341 15.5 5.01681 15.5 5.01021 15.5C5.00362 15.5 4.99703 15.5 4.99043 15.5C4.98384 15.5 4.97725 15.5 4.97067 15.5C4.96408 15.5 4.95749 15.5 4.95091 15.5C4.94432 15.5 4.93774 15.5 4.93116 15.5C4.92458 15.5 4.91801 15.5 4.91143 15.5C4.90486 15.5 4.89828 15.5 4.89171 15.5C4.88514 15.5 4.87857 15.5 4.872 15.5C4.86544 15.5 4.85887 15.5 4.85231 15.5C4.84575 15.5 4.83919 15.5 4.83263 15.5C4.82607 15.5 4.81952 15.5 4.81297 15.5C4.80641 15.5 4.79986 15.5 4.79332 15.5C4.78677 15.5 4.78023 15.5 4.77368 15.5C4.76714 15.5 4.7606 15.5 4.75406 15.5C4.74753 15.5 4.74099 15.5 4.73446 15.5C4.72793 15.5 4.7214 15.5 4.71488 15.5C4.70835 15.5 4.70183 15.5 4.69531 15.5C4.68879 15.5 4.68227 15.5 4.67576 15.5C4.66925 15.5 4.66274 15.5 4.65623 15.5C4.64972 15.5 4.64322 15.5 4.63671 15.5C4.63021 15.5 4.62371 15.5 4.61722 15.5C4.61072 15.5 4.60423 15.5 4.59774 15.5C4.59126 15.5 4.58477 15.5 4.57829 15.5C4.57181 15.5 4.56533 15.5 4.55885 15.5C4.55238 15.5 4.54591 15.5 4.53944 15.5C4.53297 15.5 4.52651 15.5 4.52005 15.5C4.51359 15.5 4.50713 15.5 4.50067 15.5C4.49422 15.5 4.48777 15.5 4.48133 15.5C4.47488 15.5 4.46844 15.5 4.462 15.5C4.45556 15.5 4.44913 15.5 4.44269 15.5C4.43626 15.5 4.42984 15.5 4.42341 15.5C4.41699 15.5 4.41057 15.5 4.40416 15.5C4.39774 15.5 4.39133 15.5 4.38492 15.5C4.37852 15.5 4.37212 15.5 4.36572 15.5C4.35932 15.5 4.35292 15.5 4.34653 15.5C4.34014 15.5 4.33376 15.5 4.32738 15.5C4.321 15.5 4.31462 15.5 4.30825 15.5C4.30187 15.5 4.29551 15.5 4.28914 15.5C4.28278 15.5 4.27642 15.5 4.27007 15.5C4.26371 15.5 4.25736 15.5 4.25102 15.5C4.24467 15.5 4.23833 15.5 4.23199 15.5C4.22566 15.5 4.21933 15.5 4.213 15.5C4.20667 15.5 4.20035 15.5 4.19403 15.5C4.18772 15.5 4.18141 15.5 4.1751 15.5C4.16879 15.5 4.16249 15.5 4.15619 15.5C4.14989 15.5 4.1436 15.5 4.13732 15.5C4.13103 15.5 4.12475 15.5 4.11847 15.5C4.11219 15.5 4.10592 15.5 4.09965 15.5C4.09339 15.5 4.08713 15.5 4.08087 15.5C4.07462 15.5 4.06837 15.5 4.06212 15.5C4.05587 15.5 4.04963 15.5 4.0434 15.5C4.03717 15.5 4.03094 15.5 4.02471 15.5C4.01849 15.5 4.01227 15.5 4.00606 15.5C3.99985 15.5 3.99364 15.5 3.98744 15.5C3.98124 15.5 3.97504 15.5 3.96885 15.5C3.96266 15.5 3.95648 15.5 3.9503 15.5C3.94412 15.5 3.93795 15.5 3.93179 15.5C3.92562 15.5 3.91946 15.5 3.91331 15.5C3.90715 15.5 3.901 15.5 3.89486 15.5C3.88872 15.5 3.88258 15.5 3.87645 15.5C3.87032 15.5 3.8642 15.5 3.85808 15.5C3.85196 15.5 3.84585 15.5 3.83974 15.5C3.83364 15.5 3.82754 15.5 3.82145 15.5C3.81535 15.5 3.80927 15.5 3.80319 15.5C3.79711 15.5 3.79103 15.5 3.78497 15.5C3.7789 15.5 3.77284 15.5 3.76678 15.5C3.76073 15.5 3.75468 15.5 3.74864 15.5C3.7426 15.5 3.73656 15.5 3.73054 15.5C3.72451 15.5 3.71849 15.5 3.71247 15.5C3.70646 15.5 3.70045 15.5 3.69445 15.5C3.68845 15.5 3.68246 15.5 3.67647 15.5C3.67048 15.5 3.6645 15.5 3.65853 15.5C3.65256 15.5 3.64659 15.5 3.64063 15.5C3.63467 15.5 3.62872 15.5 3.62278 15.5C3.61683 15.5 3.6109 15.5 3.60497 15.5C3.59904 15.5 3.59311 15.5 3.5872 15.5C3.58128 15.5 3.57537 15.5 3.56947 15.5C3.56357 15.5 3.55768 15.5 3.55179 15.5C3.54591 15.5 3.54003 15.5 3.53416 15.5C3.52828 15.5 3.52242 15.5 3.51656 15.5C3.51071 15.5 3.50486 15.5 3.49902 15.5C3.49318 15.5 3.48734 15.5 3.48152 15.5C3.47569 15.5 3.46988 15.5 3.46407 15.5C3.45826 15.5 3.45245 15.5 3.44666 15.5C3.44087 15.5 3.43508 15.5 3.4293 15.5C3.42352 15.5 3.41775 15.5 3.41199 15.5C3.40623 15.5 3.40047 15.5 3.39473 15.5C3.38898 15.5 3.38324 15.5 3.37751 15.5C3.37178 15.5 3.36606 15.5 3.36035 15.5C3.35463 15.5 3.34893 15.5 3.34323 15.5C3.33754 15.5 3.33185 15.5 3.32617 15.5C3.32049 15.5 3.31482 15.5 3.30915 15.5C3.30349 15.5 3.29783 15.5 3.29219 15.5C3.28654 15.5 3.2809 15.5 3.27527 15.5C3.26965 15.5 3.26403 15.5 3.25841 15.5C3.2528 15.5 3.2472 15.5 3.2416 15.5C3.23601 15.5 3.23042 15.5 3.22485 15.5C3.21927 15.5 3.2137 15.5 3.20814 15.5C3.20259 15.5 3.19704 15.5 3.19149 15.5C3.18595 15.5 3.18042 15.5 3.1749 15.5C3.16938 15.5 3.16386 15.5 3.15836 15.5C3.15285 15.5 3.14736 15.5 3.14187 15.5C3.13638 15.5 3.13091 15.5 3.12544 15.5C3.11997 15.5 3.11451 15.5 3.10906 15.5C3.10362 15.5 3.09818 15.5 3.09274 15.5C3.08731 15.5 3.08189 15.5 3.07648 15.5C3.07107 15.5 3.06567 15.5 3.06028 15.5C3.05488 15.5 3.0495 15.5 3.04413 15.5C3.03876 15.5 3.03339 15.5 3.02804 15.5C3.02268 15.5 3.01734 15.5 3.01201 15.5C3.00667 15.5 3.00135 15.5 2.99603 15.5C2.99072 15.5 2.98541 15.5 2.98012 15.5C2.97483 15.5 2.96954 15.5 2.96427 15.5C2.95899 15.5 2.95373 15.5 2.94847 15.5C2.94322 15.5 2.93797 15.5 2.93274 15.5C2.9275 15.5 2.92228 15.5 2.91707 15.5C2.91185 15.5 2.90665 15.5 2.90146 15.5C2.89626 15.5 2.89108 15.5 2.88591 15.5C2.88074 15.5 2.87557 15.5 2.87042 15.5C2.86527 15.5 2.86013 15.5 2.855 15.5C2.84987 15.5 2.84475 15.5 2.83964 15.5C2.83453 15.5 2.82943 15.5 2.82434 15.5C2.81925 15.5 2.81418 15.5 2.80911 15.5C2.80404 15.5 2.79899 15.5 2.79394 15.5C2.7889 15.5 2.78386 15.5 2.77884 15.5C2.77382 15.5 2.7688 15.5 2.7638 15.5C2.7588 15.5 2.75381 15.5 2.74883 15.5C2.74385 15.5 2.73888 15.5 2.73392 15.5C2.72897 15.5 2.72402 15.5 2.71909 15.5C2.71415 15.5 2.70923 15.5 2.70432 15.5C2.6994 15.5 2.6945 15.5 2.68961 15.5C2.68472 15.5 2.67984 15.5 2.67498 15.5C2.67011 15.5 2.66526 15.5 2.66041 15.5C2.65557 15.5 2.65074 15.5 2.64591 15.5C2.64109 15.5 2.63628 15.5 2.63149 15.5C2.62669 15.5 2.6219 15.5 2.61713 15.5C2.61235 15.5 2.60759 15.5 2.60284 15.5C2.59809 15.5 2.59335 15.5 2.58862 15.5C2.5839 15.5 2.57918 15.5 2.57448 15.5C2.56977 15.5 2.56508 15.5 2.5604 15.5C2.55572 15.5 2.55106 15.5 2.5464 15.5C2.54175 15.5 2.5371 15.5 2.53247 15.5C2.52784 15.5 2.52322 15.5 2.51862 15.5C2.51401 15.5 2.50942 15.5 2.50483 15.5C2.50025 15.5 2.49568 15.5 2.49113 15.5C2.48657 15.5 2.48202 15.5 2.47749 15.5C2.47296 15.5 2.46844 15.5 2.46393 15.5C2.45942 15.5 2.45493 15.5 2.45045 15.5C2.44596 15.5 2.44149 15.5 2.43704 15.5C2.43258 15.5 2.42814 15.5 2.4237 15.5C2.41927 15.5 2.41485 15.5 2.41045 15.5C2.40604 15.5 2.40165 15.5 2.39727 15.5C2.39289 15.5 2.38852 15.5 2.38417 15.5C2.37981 15.5 2.37547 15.5 2.37114 15.5C2.36682 15.5 2.3625 15.5 2.3582 15.5C2.3539 15.5 2.34961 15.5 2.34533 15.5C2.34106 15.5 2.33679 15.5 2.33254 15.5C2.32829 15.5 2.32406 15.5 2.31984 15.5C2.31561 15.5 2.3114 15.5 2.30721 15.5C2.30301 15.5 2.29883 15.5 2.29466 15.5C2.29049 15.5 2.28634 15.5 2.2822 15.5C2.27805 15.5 2.27393 15.5 2.26981 15.5C2.2657 15.5 2.26159 15.5 2.25751 15.5C2.25342 15.5 2.24935 15.5 2.24529 15.5C2.24123 15.5 2.23718 15.5 2.23315 15.5C2.22912 15.5 2.2251 15.5 2.22109 15.5C2.21709 15.5 2.2131 15.5 2.20912 15.5C2.20515 15.5 2.20118 15.5 2.19724 15.5C2.19329 15.5 2.18935 15.5 2.18543 15.5C2.18151 15.5 2.17761 15.5 2.17372 15.5C2.16982 15.5 2.16595 15.5 2.16208 15.5C2.15822 15.5 2.15437 15.5 2.15054 15.5C2.1467 15.5 2.14288 15.5 2.13908 15.5C2.13527 15.5 2.13148 15.5 2.12771 15.5C2.12393 15.5 2.12017 15.5 2.11642 15.5C2.11267 15.5 2.10894 15.5 2.10522 15.5C2.1015 15.5 2.0978 15.5 2.09411 15.5C2.09042 15.5 2.08675 15.5 2.08309 15.5C2.07943 15.5 2.07579 15.5 2.07216 15.5C2.06853 15.5 2.06491 15.5 2.06131 15.5C2.05771 15.5 2.05413 15.5 2.05056 15.5C2.04699 15.5 2.04344 15.5 2.0399 15.5C2.03636 15.5 2.03283 15.5 2.02932 15.5C2.02581 15.5 2.02232 15.5 2.01884 15.5C2.01536 15.5 2.0119 15.5 2.00845 15.5C2.005 15.5 2.00157 15.5 1.99815 15.5C1.99474 15.5 1.99134 15.5 1.98795 15.5C1.98456 15.5 1.98119 15.5 1.97784 15.5C1.97448 15.5 1.97114 15.5 1.96782 15.5C1.96449 15.5 1.96119 15.5 1.95789 15.5C1.9546 15.5 1.95132 15.5 1.94806 15.5C1.9448 15.5 1.94156 15.5 1.93833 15.5C1.9351 15.5 1.93188 15.5 1.92869 15.5C1.92549 15.5 1.92231 15.5 1.91914 15.5C1.91598 15.5 1.91283 15.5 1.90969 15.5C1.90656 15.5 1.90344 15.5 1.90034 15.5C1.89724 15.5 1.89415 15.5 1.89108 15.5C1.88801 15.5 1.88496 15.5 1.88192 15.5C1.87889 15.5 1.87587 15.5 1.87286 15.5C1.86986 15.5 1.86687 15.5 1.8639 15.5C1.86093 15.5 1.85798 15.5 1.85504 15.5C1.8521 15.5 1.84918 15.5 1.84627 15.5C1.84337 15.5 1.84048 15.5 1.83761 15.5C1.83474 15.5 1.83188 15.5 1.82904 15.5C1.82621 15.5 1.82338 15.5 1.82058 15.5C1.81777 15.5 1.81499 15.5 1.81222 15.5C1.80944 15.5 1.80669 15.5 1.80395 15.5C1.80122 15.5 1.7985 15.5 1.79579 15.5C1.79309 15.5 1.7904 15.5 1.78774 15.5C1.78507 15.5 1.78241 15.5 1.77978 15.5C1.77715 15.5 1.77453 15.5 1.77193 15.5C1.76933 15.5 1.76674 15.5 1.76418 15.5C1.76161 15.5 1.75907 15.5 1.75653 15.5C1.754 15.5 1.75149 15.5 1.74899 15.5C1.7465 15.5 1.74402 15.5 1.74156 15.5C1.7391 15.5 1.73665 15.5 1.73423 15.5C1.7318 15.5 1.7294 15.5 1.727 15.5C1.72461 15.5 1.72224 15.5 1.71989 15.5C1.71753 15.5 1.71519 15.5 1.71288 15.5C1.71056 15.5 1.70825 15.5 1.70597 15.5C1.70369 15.5 1.70142 15.5 1.69917 15.5C1.69693 15.5 1.6947 15.5 1.69249 15.5C1.69027 15.5 1.68808 15.5 1.68591 15.5C1.68373 15.5 1.68157 15.5 1.67943 15.5C1.6773 15.5 1.67518 15.5 1.67307 15.5C1.67097 15.5 1.66889 15.5 1.66682 15.5C1.66476 15.5 1.66271 15.5 1.66068 15.5C1.65865 15.5 1.65664 15.5 1.65465 15.5C1.65266 15.5 1.65068 15.5 1.64873 15.5C1.64677 15.5 1.64484 15.5 1.64292 15.5C1.641 15.5 1.6391 15.5 1.63722 15.5C1.63534 15.5 1.63348 15.5 1.63164 15.5C1.6298 15.5 1.62797 15.5 1.62617 15.5C1.62436 15.5 1.62258 15.5 1.62081 15.5C1.61904 15.5 1.61729 15.5 1.61556 15.5C1.61384 15.5 1.61213 15.5 1.61043 15.5C1.60874 15.5 1.60707 15.5 1.60542 15.5C1.60377 15.5 1.60213 15.5 1.60052 15.5C1.5989 15.5 1.59731 15.5 1.59573 15.5C1.59416 15.5 1.5926 15.5 1.59107 15.5C1.58953 15.5 1.58801 15.5 1.58651 15.5C1.58501 15.5 1.58354 15.5 1.58208 15.5C1.58062 15.5 1.57918 15.5 1.57776 15.5C1.57634 15.5 1.57494 15.5 1.57356 15.5C1.57218 15.5 1.57082 15.5 1.56948 15.5C1.56814 15.5 1.56681 15.5 1.56551 15.5C1.56421 15.5 1.56293 15.5 1.56167 15.5C1.56041 15.5 1.55916 15.5 1.55794 15.5C1.55672 15.5 1.55552 15.5 1.55434 15.5C1.55316 15.5 1.55199 15.5 1.55085 15.5C1.54971 15.5 1.54859 15.5 1.54749 15.5C1.54639 15.5 1.54531 15.5 1.54425 15.5C1.54319 15.5 1.54215 15.5 1.54113 15.5C1.54011 15.5 1.53911 15.5 1.53813 15.5C1.53715 15.5 1.53619 15.5 1.53525 15.5C1.53431 15.5 1.5334 15.5 1.5325 15.5C1.5316 15.5 1.53073 15.5 1.52987 15.5C1.52901 15.5 1.52818 15.5 1.52736 15.5C1.52655 15.5 1.52576 15.5 1.52498 15.5C1.52421 15.5 1.52346 15.5 1.52273 15.5C1.522 15.5 1.52128 15.5 1.5206 15.5C1.51991 15.5 1.51924 15.5 1.51859 15.5C1.51794 15.5 1.51732 15.5 1.51671 15.5C1.51611 15.5 1.51552 15.5 1.51496 15.5C1.5144 15.5 1.51385 15.5 1.51333 15.5C1.51281 15.5 1.51231 15.5 1.51184 15.5C1.51136 15.5 1.5109 15.5 1.51046 15.5C1.51003 15.5 1.50962 15.5 1.50922 15.5C1.50883 15.5 1.50846 15.5 1.50811 15.5C1.50776 15.5 1.50743 15.5 1.50713 15.5C1.50682 15.5 1.50654 15.5 1.50627 15.5C1.50601 15.5 1.50577 15.5 1.50555 15.5C1.50533 15.5 1.50513 15.5 1.50496 15.5C1.50478 15.5 1.50463 15.5 1.50449 15.5C1.50436 15.5 1.50425 15.5 1.50416 15.5C1.50408 15.5 1.50401 15.5 1.50396 15.5C1.50392 15.5 1.5039 15.5 1.5039 16.5C1.5039 17.5 1.50392 17.5 1.50396 17.5C1.50401 17.5 1.50408 17.5 1.50416 17.5C1.50425 17.5 1.50436 17.5 1.50449 17.5C1.50463 17.5 1.50478 17.5 1.50496 17.5C1.50513 17.5 1.50533 17.5 1.50555 17.5C1.50577 17.5 1.50601 17.5 1.50627 17.5C1.50654 17.5 1.50682 17.5 1.50713 17.5C1.50743 17.5 1.50776 17.5 1.50811 17.5C1.50846 17.5 1.50883 17.5 1.50922 17.5C1.50962 17.5 1.51003 17.5 1.51046 17.5C1.5109 17.5 1.51136 17.5 1.51184 17.5C1.51231 17.5 1.51281 17.5 1.51333 17.5C1.51385 17.5 1.5144 17.5 1.51496 17.5C1.51552 17.5 1.51611 17.5 1.51671 17.5C1.51732 17.5 1.51794 17.5 1.51859 17.5C1.51924 17.5 1.51991 17.5 1.5206 17.5C1.52128 17.5 1.522 17.5 1.52273 17.5C1.52346 17.5 1.52421 17.5 1.52498 17.5C1.52576 17.5 1.52655 17.5 1.52736 17.5C1.52818 17.5 1.52901 17.5 1.52987 17.5C1.53073 17.5 1.5316 17.5 1.5325 17.5C1.5334 17.5 1.53431 17.5 1.53525 17.5C1.53619 17.5 1.53715 17.5 1.53813 17.5C1.53911 17.5 1.54011 17.5 1.54113 17.5C1.54215 17.5 1.54319 17.5 1.54425 17.5C1.54531 17.5 1.54639 17.5 1.54749 17.5C1.54859 17.5 1.54971 17.5 1.55085 17.5C1.55199 17.5 1.55316 17.5 1.55434 17.5C1.55552 17.5 1.55672 17.5 1.55794 17.5C1.55916 17.5 1.56041 17.5 1.56167 17.5C1.56293 17.5 1.56421 17.5 1.56551 17.5C1.56681 17.5 1.56814 17.5 1.56948 17.5C1.57082 17.5 1.57218 17.5 1.57356 17.5C1.57494 17.5 1.57634 17.5 1.57776 17.5C1.57918 17.5 1.58062 17.5 1.58208 17.5C1.58354 17.5 1.58501 17.5 1.58651 17.5C1.58801 17.5 1.58953 17.5 1.59107 17.5C1.5926 17.5 1.59416 17.5 1.59573 17.5C1.59731 17.5 1.5989 17.5 1.60052 17.5C1.60213 17.5 1.60377 17.5 1.60542 17.5C1.60707 17.5 1.60874 17.5 1.61043 17.5C1.61213 17.5 1.61384 17.5 1.61556 17.5C1.61729 17.5 1.61904 17.5 1.62081 17.5C1.62258 17.5 1.62436 17.5 1.62617 17.5C1.62797 17.5 1.6298 17.5 1.63164 17.5C1.63348 17.5 1.63534 17.5 1.63722 17.5C1.6391 17.5 1.641 17.5 1.64292 17.5C1.64484 17.5 1.64677 17.5 1.64873 17.5C1.65068 17.5 1.65266 17.5 1.65465 17.5C1.65664 17.5 1.65865 17.5 1.66068 17.5C1.66271 17.5 1.66476 17.5 1.66682 17.5C1.66889 17.5 1.67097 17.5 1.67307 17.5C1.67518 17.5 1.6773 17.5 1.67943 17.5C1.68157 17.5 1.68373 17.5 1.68591 17.5C1.68808 17.5 1.69027 17.5 1.69249 17.5C1.6947 17.5 1.69693 17.5 1.69917 17.5C1.70142 17.5 1.70369 17.5 1.70597 17.5C1.70825 17.5 1.71056 17.5 1.71288 17.5C1.71519 17.5 1.71753 17.5 1.71989 17.5C1.72224 17.5 1.72461 17.5 1.727 17.5C1.7294 17.5 1.7318 17.5 1.73423 17.5C1.73665 17.5 1.7391 17.5 1.74156 17.5C1.74402 17.5 1.7465 17.5 1.74899 17.5C1.75149 17.5 1.754 17.5 1.75653 17.5C1.75907 17.5 1.76161 17.5 1.76418 17.5C1.76674 17.5 1.76933 17.5 1.77193 17.5C1.77453 17.5 1.77715 17.5 1.77978 17.5C1.78241 17.5 1.78507 17.5 1.78774 17.5C1.7904 17.5 1.79309 17.5 1.79579 17.5C1.7985 17.5 1.80122 17.5 1.80395 17.5C1.80669 17.5 1.80944 17.5 1.81222 17.5C1.81499 17.5 1.81777 17.5 1.82058 17.5C1.82338 17.5 1.82621 17.5 1.82904 17.5C1.83188 17.5 1.83474 17.5 1.83761 17.5C1.84048 17.5 1.84337 17.5 1.84627 17.5C1.84918 17.5 1.8521 17.5 1.85504 17.5C1.85798 17.5 1.86093 17.5 1.8639 17.5C1.86687 17.5 1.86986 17.5 1.87286 17.5C1.87587 17.5 1.87889 17.5 1.88192 17.5C1.88496 17.5 1.88801 17.5 1.89108 17.5C1.89415 17.5 1.89724 17.5 1.90034 17.5C1.90344 17.5 1.90656 17.5 1.90969 17.5C1.91283 17.5 1.91598 17.5 1.91914 17.5C1.92231 17.5 1.92549 17.5 1.92869 17.5C1.93188 17.5 1.9351 17.5 1.93833 17.5C1.94156 17.5 1.9448 17.5 1.94806 17.5C1.95132 17.5 1.9546 17.5 1.95789 17.5C1.96119 17.5 1.96449 17.5 1.96782 17.5C1.97114 17.5 1.97448 17.5 1.97784 17.5C1.98119 17.5 1.98456 17.5 1.98795 17.5C1.99134 17.5 1.99474 17.5 1.99815 17.5C2.00157 17.5 2.005 17.5 2.00845 17.5C2.0119 17.5 2.01536 17.5 2.01884 17.5C2.02232 17.5 2.02581 17.5 2.02932 17.5C2.03283 17.5 2.03636 17.5 2.0399 17.5C2.04344 17.5 2.04699 17.5 2.05056 17.5C2.05413 17.5 2.05771 17.5 2.06131 17.5C2.06491 17.5 2.06853 17.5 2.07216 17.5C2.07579 17.5 2.07943 17.5 2.08309 17.5C2.08675 17.5 2.09042 17.5 2.09411 17.5C2.0978 17.5 2.1015 17.5 2.10522 17.5C2.10894 17.5 2.11267 17.5 2.11642 17.5C2.12017 17.5 2.12393 17.5 2.12771 17.5C2.13148 17.5 2.13527 17.5 2.13908 17.5C2.14288 17.5 2.1467 17.5 2.15054 17.5C2.15437 17.5 2.15822 17.5 2.16208 17.5C2.16595 17.5 2.16982 17.5 2.17372 17.5C2.17761 17.5 2.18151 17.5 2.18543 17.5C2.18935 17.5 2.19329 17.5 2.19724 17.5C2.20118 17.5 2.20515 17.5 2.20912 17.5C2.2131 17.5 2.21709 17.5 2.22109 17.5C2.2251 17.5 2.22912 17.5 2.23315 17.5C2.23718 17.5 2.24123 17.5 2.24529 17.5C2.24935 17.5 2.25342 17.5 2.25751 17.5C2.26159 17.5 2.2657 17.5 2.26981 17.5C2.27393 17.5 2.27805 17.5 2.2822 17.5C2.28634 17.5 2.29049 17.5 2.29466 17.5C2.29883 17.5 2.30301 17.5 2.30721 17.5C2.3114 17.5 2.31561 17.5 2.31984 17.5C2.32406 17.5 2.32829 17.5 2.33254 17.5C2.33679 17.5 2.34106 17.5 2.34533 17.5C2.34961 17.5 2.3539 17.5 2.3582 17.5C2.3625 17.5 2.36682 17.5 2.37114 17.5C2.37547 17.5 2.37981 17.5 2.38417 17.5C2.38852 17.5 2.39289 17.5 2.39727 17.5C2.40165 17.5 2.40604 17.5 2.41045 17.5C2.41485 17.5 2.41927 17.5 2.4237 17.5C2.42814 17.5 2.43258 17.5 2.43704 17.5C2.44149 17.5 2.44596 17.5 2.45045 17.5C2.45493 17.5 2.45942 17.5 2.46393 17.5C2.46844 17.5 2.47296 17.5 2.47749 17.5C2.48202 17.5 2.48657 17.5 2.49113 17.5C2.49568 17.5 2.50025 17.5 2.50483 17.5C2.50942 17.5 2.51401 17.5 2.51862 17.5C2.52322 17.5 2.52784 17.5 2.53247 17.5C2.5371 17.5 2.54175 17.5 2.5464 17.5C2.55106 17.5 2.55572 17.5 2.5604 17.5C2.56508 17.5 2.56977 17.5 2.57448 17.5C2.57918 17.5 2.5839 17.5 2.58862 17.5C2.59335 17.5 2.59809 17.5 2.60284 17.5C2.60759 17.5 2.61235 17.5 2.61713 17.5C2.6219 17.5 2.62669 17.5 2.63149 17.5C2.63628 17.5 2.64109 17.5 2.64591 17.5C2.65074 17.5 2.65557 17.5 2.66041 17.5C2.66526 17.5 2.67011 17.5 2.67498 17.5C2.67984 17.5 2.68472 17.5 2.68961 17.5C2.6945 17.5 2.6994 17.5 2.70432 17.5C2.70923 17.5 2.71415 17.5 2.71909 17.5C2.72402 17.5 2.72897 17.5 2.73392 17.5C2.73888 17.5 2.74385 17.5 2.74883 17.5C2.75381 17.5 2.7588 17.5 2.7638 17.5C2.7688 17.5 2.77382 17.5 2.77884 17.5C2.78386 17.5 2.7889 17.5 2.79394 17.5C2.79899 17.5 2.80404 17.5 2.80911 17.5C2.81418 17.5 2.81925 17.5 2.82434 17.5C2.82943 17.5 2.83453 17.5 2.83964 17.5C2.84475 17.5 2.84987 17.5 2.855 17.5C2.86013 17.5 2.86527 17.5 2.87042 17.5C2.87557 17.5 2.88074 17.5 2.88591 17.5C2.89108 17.5 2.89626 17.5 2.90146 17.5C2.90665 17.5 2.91185 17.5 2.91707 17.5C2.92228 17.5 2.9275 17.5 2.93274 17.5C2.93797 17.5 2.94322 17.5 2.94847 17.5C2.95373 17.5 2.95899 17.5 2.96427 17.5C2.96954 17.5 2.97483 17.5 2.98012 17.5C2.98541 17.5 2.99072 17.5 2.99603 17.5C3.00135 17.5 3.00667 17.5 3.01201 17.5C3.01734 17.5 3.02268 17.5 3.02804 17.5C3.03339 17.5 3.03876 17.5 3.04413 17.5C3.0495 17.5 3.05488 17.5 3.06028 17.5C3.06567 17.5 3.07107 17.5 3.07648 17.5C3.08189 17.5 3.08731 17.5 3.09274 17.5C3.09818 17.5 3.10362 17.5 3.10906 17.5C3.11451 17.5 3.11997 17.5 3.12544 17.5C3.13091 17.5 3.13638 17.5 3.14187 17.5C3.14736 17.5 3.15285 17.5 3.15836 17.5C3.16386 17.5 3.16938 17.5 3.1749 17.5C3.18042 17.5 3.18595 17.5 3.19149 17.5C3.19704 17.5 3.20259 17.5 3.20814 17.5C3.2137 17.5 3.21927 17.5 3.22485 17.5C3.23042 17.5 3.23601 17.5 3.2416 17.5C3.2472 17.5 3.2528 17.5 3.25841 17.5C3.26403 17.5 3.26965 17.5 3.27527 17.5C3.2809 17.5 3.28654 17.5 3.29219 17.5C3.29783 17.5 3.30349 17.5 3.30915 17.5C3.31482 17.5 3.32049 17.5 3.32617 17.5C3.33185 17.5 3.33754 17.5 3.34323 17.5C3.34893 17.5 3.35463 17.5 3.36035 17.5C3.36606 17.5 3.37178 17.5 3.37751 17.5C3.38324 17.5 3.38898 17.5 3.39473 17.5C3.40047 17.5 3.40623 17.5 3.41199 17.5C3.41775 17.5 3.42352 17.5 3.4293 17.5C3.43508 17.5 3.44087 17.5 3.44666 17.5C3.45245 17.5 3.45826 17.5 3.46407 17.5C3.46988 17.5 3.47569 17.5 3.48152 17.5C3.48734 17.5 3.49318 17.5 3.49902 17.5C3.50486 17.5 3.51071 17.5 3.51656 17.5C3.52242 17.5 3.52828 17.5 3.53416 17.5C3.54003 17.5 3.54591 17.5 3.55179 17.5C3.55768 17.5 3.56357 17.5 3.56947 17.5C3.57537 17.5 3.58128 17.5 3.5872 17.5C3.59311 17.5 3.59904 17.5 3.60497 17.5C3.6109 17.5 3.61683 17.5 3.62278 17.5C3.62872 17.5 3.63467 17.5 3.64063 17.5C3.64659 17.5 3.65256 17.5 3.65853 17.5C3.6645 17.5 3.67048 17.5 3.67647 17.5C3.68246 17.5 3.68845 17.5 3.69445 17.5C3.70045 17.5 3.70646 17.5 3.71247 17.5C3.71849 17.5 3.72451 17.5 3.73054 17.5C3.73656 17.5 3.7426 17.5 3.74864 17.5C3.75468 17.5 3.76073 17.5 3.76678 17.5C3.77284 17.5 3.7789 17.5 3.78497 17.5C3.79103 17.5 3.79711 17.5 3.80319 17.5C3.80927 17.5 3.81535 17.5 3.82145 17.5C3.82754 17.5 3.83364 17.5 3.83974 17.5C3.84585 17.5 3.85196 17.5 3.85808 17.5C3.8642 17.5 3.87032 17.5 3.87645 17.5C3.88258 17.5 3.88872 17.5 3.89486 17.5C3.901 17.5 3.90715 17.5 3.91331 17.5C3.91946 17.5 3.92562 17.5 3.93179 17.5C3.93795 17.5 3.94412 17.5 3.9503 17.5C3.95648 17.5 3.96266 17.5 3.96885 17.5C3.97504 17.5 3.98124 17.5 3.98744 17.5C3.99364 17.5 3.99985 17.5 4.00606 17.5C4.01227 17.5 4.01849 17.5 4.02471 17.5C4.03094 17.5 4.03717 17.5 4.0434 17.5C4.04963 17.5 4.05587 17.5 4.06212 17.5C4.06837 17.5 4.07462 17.5 4.08087 17.5C4.08713 17.5 4.09339 17.5 4.09965 17.5C4.10592 17.5 4.11219 17.5 4.11847 17.5C4.12475 17.5 4.13103 17.5 4.13732 17.5C4.1436 17.5 4.14989 17.5 4.15619 17.5C4.16249 17.5 4.16879 17.5 4.1751 17.5C4.18141 17.5 4.18772 17.5 4.19403 17.5C4.20035 17.5 4.20667 17.5 4.213 17.5C4.21933 17.5 4.22566 17.5 4.23199 17.5C4.23833 17.5 4.24467 17.5 4.25102 17.5C4.25736 17.5 4.26371 17.5 4.27007 17.5C4.27642 17.5 4.28278 17.5 4.28914 17.5C4.29551 17.5 4.30187 17.5 4.30825 17.5C4.31462 17.5 4.321 17.5 4.32738 17.5C4.33376 17.5 4.34014 17.5 4.34653 17.5C4.35292 17.5 4.35932 17.5 4.36572 17.5C4.37212 17.5 4.37852 17.5 4.38492 17.5C4.39133 17.5 4.39774 17.5 4.40416 17.5C4.41057 17.5 4.41699 17.5 4.42341 17.5C4.42984 17.5 4.43626 17.5 4.44269 17.5C4.44913 17.5 4.45556 17.5 4.462 17.5C4.46844 17.5 4.47488 17.5 4.48133 17.5C4.48777 17.5 4.49422 17.5 4.50067 17.5C4.50713 17.5 4.51359 17.5 4.52005 17.5C4.52651 17.5 4.53297 17.5 4.53944 17.5C4.54591 17.5 4.55238 17.5 4.55885 17.5C4.56533 17.5 4.57181 17.5 4.57829 17.5C4.58477 17.5 4.59126 17.5 4.59774 17.5C4.60423 17.5 4.61072 17.5 4.61722 17.5C4.62371 17.5 4.63021 17.5 4.63671 17.5C4.64322 17.5 4.64972 17.5 4.65623 17.5C4.66274 17.5 4.66925 17.5 4.67576 17.5C4.68227 17.5 4.68879 17.5 4.69531 17.5C4.70183 17.5 4.70835 17.5 4.71488 17.5C4.7214 17.5 4.72793 17.5 4.73446 17.5C4.74099 17.5 4.74753 17.5 4.75406 17.5C4.7606 17.5 4.76714 17.5 4.77368 17.5C4.78023 17.5 4.78677 17.5 4.79332 17.5C4.79986 17.5 4.80641 17.5 4.81297 17.5C4.81952 17.5 4.82607 17.5 4.83263 17.5C4.83919 17.5 4.84575 17.5 4.85231 17.5C4.85887 17.5 4.86544 17.5 4.872 17.5C4.87857 17.5 4.88514 17.5 4.89171 17.5C4.89828 17.5 4.90486 17.5 4.91143 17.5C4.91801 17.5 4.92458 17.5 4.93116 17.5C4.93774 17.5 4.94432 17.5 4.95091 17.5C4.95749 17.5 4.96408 17.5 4.97067 17.5C4.97725 17.5 4.98384 17.5 4.99043 17.5C4.99703 17.5 5.00362 17.5 5.01021 17.5C5.01681 17.5 5.02341 17.5 5.03 17.5C5.0366 17.5 5.0432 17.5 5.0498 17.5C5.05641 17.5 5.06301 17.5 5.06961 17.5C5.07622 17.5 5.08282 17.5 5.08943 17.5C5.09604 17.5 5.10265 17.5 5.10926 17.5C5.11587 17.5 5.12248 17.5 5.1291 17.5C5.13571 17.5 5.14232 17.5 5.14894 17.5C5.15556 17.5 5.16217 17.5 5.16879 17.5C5.17541 17.5 5.18203 17.5 5.18865 17.5C5.19527 17.5 5.20189 17.5 5.20852 17.5C5.21514 17.5 5.22176 17.5 5.22839 17.5C5.23501 17.5 5.24164 17.5 5.24826 17.5C5.25489 17.5 5.26152 17.5 5.26815 17.5C5.27478 17.5 5.2814 17.5 5.28803 17.5C5.29466 17.5 5.30129 17.5 5.30793 17.5C5.31456 17.5 5.32119 17.5 5.32782 17.5C5.33445 17.5 5.34109 17.5 5.34772 17.5C5.35435 17.5 5.36099 17.5 5.36762 17.5C5.37426 17.5 5.38089 17.5 5.38753 17.5C5.39416 17.5 5.4008 17.5 5.40743 17.5C5.41407 17.5 5.4207 17.5 5.42734 17.5C5.43398 17.5 5.44061 17.5 5.44725 17.5C5.45389 17.5 5.46052 17.5 5.46716 17.5C5.4738 17.5 5.48043 17.5 5.48707 17.5C5.49371 17.5 5.50035 17.5 5.50698 17.5C5.51362 17.5 5.52026 17.5 5.52689 17.5C5.53353 17.5 5.54017 17.5 5.5468 17.5C5.55344 17.5 5.56007 17.5 5.56671 17.5C5.57335 17.5 5.57998 17.5 5.58662 17.5C5.59325 17.5 5.59989 17.5 5.60652 17.5C5.61315 17.5 5.61979 17.5 5.62642 17.5C5.63305 17.5 5.63969 17.5 5.64632 17.5C5.65295 17.5 5.65958 17.5 5.66621 17.5C5.67284 17.5 5.67947 17.5 5.6861 17.5C5.69273 17.5 5.69936 17.5 5.70599 17.5C5.71262 17.5 5.71924 17.5 5.72587 17.5C5.7325 17.5 5.73912 17.5 5.74574 17.5C5.75237 17.5 5.75899 17.5 5.76561 17.5C5.77224 17.5 5.77886 17.5 5.78548 17.5C5.7921 17.5 5.79872 17.5 5.80533 17.5C5.81195 17.5 5.81857 17.5 5.82518 17.5C5.8318 17.5 5.83841 17.5 5.84503 17.5C5.85164 17.5 5.85825 17.5 5.86486 17.5C5.87147 17.5 5.87808 17.5 5.88468 17.5C5.89129 17.5 5.8979 17.5 5.9045 17.5C5.9111 17.5 5.91771 17.5 5.92431 17.5C5.93091 17.5 5.93751 17.5 5.9441 17.5C5.9507 17.5 5.9573 17.5 5.96389 17.5C5.97049 17.5 5.97708 17.5 5.98367 17.5C5.99026 17.5 5.99685 17.5 6.00343 17.5C6.01002 17.5 6.0166 17.5 6.02319 17.5C6.02977 17.5 6.03635 17.5 6.04293 17.5C6.04951 17.5 6.05608 17.5 6.06266 17.5C6.06923 17.5 6.0758 17.5 6.08237 17.5C6.08894 17.5 6.09551 17.5 6.10208 17.5C6.10864 17.5 6.1152 17.5 6.12176 17.5C6.12832 17.5 6.13488 17.5 6.14144 17.5C6.14799 17.5 6.15455 17.5 6.1611 17.5C6.16765 17.5 6.1742 17.5 6.18074 17.5C6.18729 17.5 6.19383 17.5 6.20037 17.5C6.20691 17.5 6.21345 17.5 6.21999 17.5C6.22652 17.5 6.23305 17.5 6.23958 17.5C6.24611 17.5 6.25264 17.5 6.25916 17.5C6.26569 17.5 6.27221 17.5 6.27873 17.5C6.28524 17.5 6.29176 17.5 6.29827 17.5C6.30478 17.5 6.31129 17.5 6.3178 17.5C6.3243 17.5 6.33081 17.5 6.33731 17.5C6.3438 17.5 6.3503 17.5 6.35679 17.5C6.36329 17.5 6.36978 17.5 6.37626 17.5C6.38275 17.5 6.38923 17.5 6.39571 17.5C6.40219 17.5 6.40867 17.5 6.41514 17.5C6.42161 17.5 6.42808 17.5 6.43455 17.5C6.44101 17.5 6.44748 17.5 6.45394 17.5C6.46039 17.5 6.46685 17.5 6.4733 17.5C6.47975 17.5 6.4862 17.5 6.49264 17.5C6.49909 17.5 6.50553 17.5 6.51196 17.5C6.5184 17.5 6.52483 17.5 6.53126 17.5C6.53769 17.5 6.54411 17.5 6.55053 17.5C6.55695 17.5 6.56337 17.5 6.56978 17.5C6.57619 17.5 6.5826 17.5 6.58901 17.5C6.59541 17.5 6.60181 17.5 6.60821 17.5C6.6146 17.5 6.621 17.5 6.62738 17.5C6.63377 17.5 6.64015 17.5 6.64653 17.5C6.65291 17.5 6.65928 17.5 6.66565 17.5C6.67202 17.5 6.67839 17.5 6.68475 17.5C6.69111 17.5 6.69747 17.5 6.70382 17.5C6.71017 17.5 6.71652 17.5 6.72286 17.5C6.7292 17.5 6.73554 17.5 6.74187 17.5C6.74821 17.5 6.75454 17.5 6.76086 17.5C6.76718 17.5 6.7735 17.5 6.77982 17.5C6.78613 17.5 6.79244 17.5 6.79874 17.5C6.80505 17.5 6.81135 17.5 6.81764 17.5C6.82393 17.5 6.83022 17.5 6.83651 17.5C6.84279 17.5 6.84907 17.5 6.85534 17.5C6.86162 17.5 6.86789 17.5 6.87415 17.5C6.88041 17.5 6.88667 17.5 6.89292 17.5C6.89918 17.5 6.90542 17.5 6.91166 17.5C6.91791 17.5 6.92414 17.5 6.93037 17.5C6.9366 17.5 6.94283 17.5 6.94905 17.5C6.95527 17.5 6.96148 17.5 6.96769 17.5C6.9739 17.5 6.98011 17.5 6.9863 17.5C6.9925 17.5 6.99869 17.5 7.00488 17.5C7.01107 17.5 7.01725 17.5 7.02342 17.5C7.02959 17.5 7.03576 17.5 7.04193 17.5C7.04809 17.5 7.05424 17.5 7.0604 17.5C7.06655 17.5 7.07269 17.5 7.07883 17.5C7.08497 17.5 7.0911 17.5 7.09723 17.5C7.10335 17.5 7.10947 17.5 7.11559 17.5C7.1217 17.5 7.12781 17.5 7.13391 17.5C7.14001 17.5 7.14611 17.5 7.1522 17.5C7.15829 17.5 7.16437 17.5 7.17045 17.5C7.17652 17.5 7.18259 17.5 7.18866 17.5C7.19472 17.5 7.20078 17.5 7.20683 17.5C7.21288 17.5 7.21892 17.5 7.22496 17.5C7.23099 17.5 7.23702 17.5 7.24305 17.5C7.24907 17.5 7.25509 17.5 7.2611 17.5C7.26711 17.5 7.27311 17.5 7.27911 17.5C7.2851 17.5 7.29109 17.5 7.29708 17.5C7.30306 17.5 7.30904 17.5 7.315 17.5C7.32097 17.5 7.32693 17.5 7.33289 17.5C7.33884 17.5 7.34479 17.5 7.35073 17.5C7.35667 17.5 7.3626 17.5 7.36853 17.5C7.37445 17.5 7.38037 17.5 7.38628 17.5C7.3922 17.5 7.3981 17.5 7.404 17.5C7.40989 17.5 7.41578 17.5 7.42166 17.5C7.42755 17.5 7.43342 17.5 7.43929 17.5C7.44515 17.5 7.45101 17.5 7.45686 17.5C7.46271 17.5 7.46856 17.5 7.47439 17.5C7.48023 17.5 7.48606 17.5 7.49188 17.5C7.4977 17.5 7.50351 17.5 7.50932 17.5C7.51512 17.5 7.52092 17.5 7.52671 17.5C7.5325 17.5 7.53828 17.5 7.54406 17.5C7.54983 17.5 7.55559 17.5 7.56135 17.5C7.56711 17.5 7.57286 17.5 7.5786 17.5C7.58434 17.5 7.59007 17.5 7.5958 17.5C7.60152 17.5 7.60724 17.5 7.61295 17.5C7.61866 17.5 7.62436 17.5 7.63005 17.5C7.63574 17.5 7.64142 17.5 7.6471 17.5C7.65277 17.5 7.65844 17.5 7.6641 17.5C7.66976 17.5 7.67541 17.5 7.68105 17.5C7.68669 17.5 7.69232 17.5 7.69795 17.5C7.70357 17.5 7.70918 17.5 7.71479 17.5C7.7204 17.5 7.726 17.5 7.73158 17.5C7.73717 17.5 7.74275 17.5 7.74832 17.5C7.7539 17.5 7.75946 17.5 7.76501 17.5C7.77056 17.5 7.77611 17.5 7.78164 17.5C7.78718 17.5 7.79271 17.5 7.79822 17.5C7.80374 17.5 7.80925 17.5 7.81475 17.5C7.82025 17.5 7.82574 17.5 7.83122 17.5C7.8367 17.5 7.84217 17.5 7.84763 17.5C7.8531 17.5 7.85855 17.5 7.86399 17.5C7.86943 17.5 7.87487 17.5 7.88029 17.5C7.88572 17.5 7.89113 17.5 7.89654 17.5C7.90194 17.5 7.90734 17.5 7.91273 17.5C7.91811 17.5 7.92349 17.5 7.92886 17.5C7.93422 17.5 7.93958 17.5 7.94493 17.5C7.95028 17.5 7.95562 17.5 7.96094 17.5C7.96627 17.5 7.97159 17.5 7.9769 17.5C7.98221 17.5 7.98751 17.5 7.99279 17.5C7.99808 17.5 8.00336 17.5 8.00863 17.5C8.0139 17.5 8.01916 17.5 8.02441 17.5C8.02965 17.5 8.03489 17.5 8.04012 17.5C8.04535 17.5 8.05057 17.5 8.05577 17.5C8.06098 17.5 8.06618 17.5 8.07137 17.5C8.07655 17.5 8.08173 17.5 8.08689 17.5C8.09206 17.5 8.09722 17.5 8.10236 17.5C8.10751 17.5 8.11264 17.5 8.11777 17.5C8.12289 17.5 8.128 17.5 8.13311 17.5C8.13821 17.5 8.1433 17.5 8.14838 17.5C8.15347 17.5 8.15854 17.5 8.1636 17.5C8.16866 17.5 8.17371 17.5 8.17874 17.5C8.18378 17.5 8.18881 17.5 8.19383 17.5C8.19884 17.5 8.20385 17.5 8.20884 17.5C8.21384 17.5 8.21882 17.5 8.2238 17.5C8.22877 17.5 8.23373 17.5 8.23868 17.5C8.24363 17.5 8.24857 17.5 8.2535 17.5C8.25843 17.5 8.26334 17.5 8.26825 17.5C8.27315 17.5 8.27805 17.5 8.28293 17.5C8.28781 17.5 8.29269 17.5 8.29754 17.5C8.3024 17.5 8.30725 17.5 8.31209 17.5C8.31693 17.5 8.32175 17.5 8.32657 17.5C8.33138 17.5 8.33618 17.5 8.34097 17.5C8.34576 17.5 8.35054 17.5 8.35531 17.5C8.36008 17.5 8.36483 17.5 8.36958 17.5C8.37432 17.5 8.37905 17.5 8.38377 17.5C8.38849 17.5 8.3932 17.5 8.3979 17.5C8.40259 17.5 8.40728 17.5 8.41195 17.5C8.41662 17.5 8.42128 17.5 8.42593 17.5C8.43057 17.5 8.43521 17.5 8.43983 17.5C8.44446 17.5 8.44907 17.5 8.45367 17.5C8.45827 17.5 8.46285 17.5 8.46743 17.5C8.472 17.5 8.47656 17.5 8.48111 17.5C8.48566 17.5 8.4902 17.5 8.49473 17.5C8.49925 17.5 8.50376 17.5 8.50826 17.5C8.51276 17.5 8.51725 17.5 8.52172 17.5C8.5262 17.5 8.53066 17.5 8.53511 17.5C8.53956 17.5 8.544 17.5 8.54842 17.5C8.55284 17.5 8.55725 17.5 8.56165 17.5C8.56605 17.5 8.57044 17.5 8.57481 17.5C8.57918 17.5 8.58354 17.5 8.58789 17.5C8.59223 17.5 8.59657 17.5 8.60089 17.5C8.60521 17.5 8.60951 17.5 8.61381 17.5C8.6181 17.5 8.62238 17.5 8.62665 17.5C8.63092 17.5 8.63517 17.5 8.63941 17.5C8.64365 17.5 8.64788 17.5 8.6521 17.5C8.65631 17.5 8.66051 17.5 8.6647 17.5C8.66889 17.5 8.67306 17.5 8.67722 17.5C8.68138 17.5 8.68553 17.5 8.68966 17.5C8.6938 17.5 8.69792 17.5 8.70202 17.5C8.70613 17.5 8.71022 17.5 8.7143 17.5C8.71838 17.5 8.72245 17.5 8.7265 17.5C8.73055 17.5 8.73459 17.5 8.73861 17.5C8.74263 17.5 8.74664 17.5 8.75064 17.5C8.75464 17.5 8.75862 17.5 8.76259 17.5C8.76655 17.5 8.77051 17.5 8.77445 17.5C8.77839 17.5 8.78231 17.5 8.78622 17.5C8.79013 17.5 8.79403 17.5 8.79791 17.5C8.8018 17.5 8.80567 17.5 8.80952 17.5C8.81337 17.5 8.81721 17.5 8.82104 17.5C8.82487 17.5 8.82868 17.5 8.83247 17.5C8.83627 17.5 8.84005 17.5 8.84382 17.5C8.84759 17.5 8.85134 17.5 8.85508 17.5C8.85882 17.5 8.86254 17.5 8.86625 17.5C8.86996 17.5 8.87365 17.5 8.87733 17.5C8.88101 17.5 8.88468 17.5 8.88833 17.5C8.89198 17.5 8.89561 17.5 8.89923 17.5C8.90285 17.5 8.90646 17.5 8.91005 17.5C8.91364 17.5 8.91722 17.5 8.92078 17.5C8.92434 17.5 8.92788 17.5 8.93141 17.5C8.93494 17.5 8.93846 17.5 8.94196 17.5C8.94546 17.5 8.94894 17.5 8.95241 17.5C8.95588 17.5 8.95933 17.5 8.96277 17.5C8.96621 17.5 8.96963 17.5 8.97304 17.5C8.97645 17.5 8.97984 17.5 8.98322 17.5C8.9866 17.5 8.98996 17.5 8.9933 17.5C8.99665 17.5 8.99998 17.5 9.00329 17.5V15.5ZM1.5039 16.5C2.42704 16.8845 2.4271 16.8843 2.42715 16.8842C2.42718 16.8841 2.42724 16.884 2.4273 16.8838C2.4274 16.8836 2.42753 16.8833 2.42767 16.8829C2.42796 16.8822 2.42833 16.8814 2.42877 16.8803C2.42966 16.8781 2.43086 16.8752 2.43236 16.8716C2.43535 16.8643 2.43952 16.8541 2.44479 16.8412C2.45533 16.8153 2.47024 16.7782 2.48875 16.7314C2.52576 16.6377 2.57733 16.5044 2.63723 16.3416C2.75649 16.0177 2.91138 15.5702 3.05019 15.0836C3.18744 14.6026 3.31737 14.0545 3.37475 13.5363C3.42691 13.0654 3.44487 12.4243 3.17869 11.8889L1.38775 12.7791C1.38158 12.7667 1.43212 12.908 1.38691 13.3162C1.34692 13.6773 1.24951 14.1053 1.12693 14.5349C1.00591 14.9591 0.868473 15.357 0.760357 15.6507C0.706573 15.7968 0.660695 15.9154 0.628673 15.9964C0.612677 16.0369 0.600181 16.0679 0.591935 16.0882C0.587814 16.0984 0.584758 16.1058 0.582863 16.1104C0.581915 16.1127 0.581258 16.1143 0.580902 16.1152C0.580725 16.1156 0.580623 16.1159 0.580598 16.1159C0.580585 16.116 0.580592 16.1159 0.580619 16.1159C0.580632 16.1158 0.580666 16.1158 0.580672 16.1157C0.580712 16.1156 0.580756 16.1155 1.5039 16.5Z" fill="#1570EF"/>
</svg>
