<svg width="20" height="18" viewBox="0 0 20 18" fill="none" xmlns="http://www.w3.org/2000/svg">
<path d="M7.50004 17.3332H15C15.6917 17.3332 16.2834 16.9165 16.5334 16.3165L19.05 10.4415C19.125 10.2498 19.1667 10.0498 19.1667 9.83317V8.1665C19.1667 7.24984 18.4167 6.49984 17.5 6.49984H12.2417L13.0334 2.6915L13.0584 2.42484C13.0584 2.08317 12.9167 1.7665 12.6917 1.5415L11.8084 0.666504L6.31671 6.15817C6.01671 6.45817 5.83337 6.87484 5.83337 7.33317V15.6665C5.83337 16.5832 6.58337 17.3332 7.50004 17.3332ZM7.50004 7.33317L11.1167 3.7165L10 8.1665H17.5V9.83317L15 15.6665H7.50004V7.33317ZM0.833374 7.33317H4.16671V17.3332H0.833374V7.33317Z" fill="#1570EF"/>
</svg>
