<svg width="173" height="56" viewBox="0 0 173 56" fill="none" xmlns="http://www.w3.org/2000/svg">
<g filter="url(#filter0_d_119_875)">
<path d="M50.6416 39.864C50.6464 43.5984 47.6224 46.632 43.888 46.6368C43.8832 46.6368 43.8736 46.6368 43.8688 46.6368H12.1504C8.3968 46.6368 5.3584 43.632 5.3584 39.864V8.1504C5.3584 4.4016 8.3968 1.3584 12.1504 1.3584H43.864C47.608 1.368 50.6368 4.4064 50.6368 8.1504V39.864" fill="#34A853"/>
<path d="M23.152 9.90234C18.1552 9.90234 14.0992 13.9583 14.0944 18.9599V28.8959C14.0944 33.8975 18.1504 37.9487 23.152 37.9487H32.9008C37.9024 37.9487 41.944 33.8975 41.944 28.8959V22.4735C41.944 21.4751 41.1424 20.6639 40.144 20.6639H38.584C37.6288 20.6639 36.8512 19.9199 36.784 18.9791L36.7744 18.9599C36.7744 13.9583 32.7184 9.90234 27.7168 9.90234H23.152ZM22.9312 17.2463H28.0624C29.0224 17.2463 29.8048 18.0239 29.8048 18.9887C29.8 19.9487 29.0224 20.7263 28.0624 20.7311H22.9312C21.9712 20.7263 21.1936 19.9487 21.1888 18.9887C21.1888 18.0287 21.9712 17.2463 22.9312 17.2463ZM22.9168 27.4463H33.208C34.1152 27.4463 34.8592 28.1759 34.8592 29.0879C34.8592 29.9999 34.1152 30.7439 33.208 30.7439H22.9168C22.0096 30.7439 21.2752 29.9999 21.2752 29.0879C21.2752 28.1759 22.0096 27.4463 22.9168 27.4463Z" fill="white"/>
</g>
<path d="M67.7045 33H61.517V15.5455H67.7557C69.5114 15.5455 71.0227 15.8949 72.2898 16.5938C73.5568 17.2869 74.5313 18.2841 75.2131 19.5852C75.9006 20.8864 76.2443 22.4432 76.2443 24.2557C76.2443 26.0739 75.9006 27.6364 75.2131 28.9432C74.5313 30.25 73.5511 31.2528 72.2727 31.9517C71 32.6506 69.4773 33 67.7045 33ZM65.2074 29.8381H67.5511C68.642 29.8381 69.5597 29.6449 70.304 29.2585C71.054 28.8665 71.6165 28.2614 71.9915 27.4432C72.3722 26.6193 72.5625 25.5568 72.5625 24.2557C72.5625 22.9659 72.3722 21.9119 71.9915 21.0938C71.6165 20.2756 71.0568 19.6733 70.3125 19.2869C69.5682 18.9006 68.6506 18.7074 67.5597 18.7074H65.2074V29.8381ZM84.8757 33.2557C83.5291 33.2557 82.37 32.983 81.3984 32.4375C80.4325 31.8864 79.6882 31.108 79.1655 30.1023C78.6428 29.0909 78.3814 27.8949 78.3814 26.5142C78.3814 25.1676 78.6428 23.9858 79.1655 22.9688C79.6882 21.9517 80.424 21.1591 81.3729 20.5909C82.3274 20.0227 83.4467 19.7386 84.7308 19.7386C85.5945 19.7386 86.3984 19.8778 87.1428 20.1562C87.8928 20.429 88.5462 20.8409 89.103 21.392C89.6655 21.9432 90.103 22.6364 90.4155 23.4716C90.728 24.3011 90.8842 25.2727 90.8842 26.3864V27.3835H79.8303V25.1335H87.4666C87.4666 24.6108 87.353 24.1477 87.1257 23.7443C86.8984 23.3409 86.5831 23.0256 86.1797 22.7983C85.782 22.5653 85.3189 22.4489 84.7905 22.4489C84.2393 22.4489 83.7507 22.5767 83.3246 22.8324C82.9041 23.0824 82.5746 23.4205 82.3359 23.8466C82.0973 24.267 81.9751 24.7358 81.9695 25.2528V27.392C81.9695 28.0398 82.0888 28.5994 82.3274 29.071C82.5717 29.5426 82.9155 29.9062 83.3587 30.1619C83.8018 30.4176 84.3274 30.5455 84.9354 30.5455C85.3388 30.5455 85.7081 30.4886 86.0433 30.375C86.3786 30.2614 86.6655 30.0909 86.9041 29.8636C87.1428 29.6364 87.3246 29.358 87.4496 29.0284L90.8075 29.25C90.6371 30.0568 90.2876 30.7614 89.7592 31.3636C89.2365 31.9602 88.5604 32.4261 87.7308 32.7614C86.907 33.0909 85.9553 33.2557 84.8757 33.2557ZM99.1683 33.2557C97.8274 33.2557 96.674 32.9716 95.7081 32.4034C94.7479 31.8295 94.0092 31.0341 93.4922 30.017C92.9808 29 92.7251 27.8295 92.7251 26.5057C92.7251 25.1648 92.9837 23.9886 93.5007 22.9773C94.0234 21.9602 94.7649 21.1676 95.7251 20.5994C96.6854 20.0256 97.8274 19.7386 99.1513 19.7386C100.293 19.7386 101.293 19.946 102.151 20.3608C103.009 20.7756 103.688 21.358 104.188 22.108C104.688 22.858 104.964 23.7386 105.015 24.75H101.589C101.492 24.0966 101.237 23.571 100.822 23.1733C100.413 22.7699 99.8757 22.5682 99.2109 22.5682C98.6484 22.5682 98.157 22.7216 97.7365 23.0284C97.3217 23.3295 96.9979 23.7699 96.7649 24.3494C96.532 24.929 96.4155 25.6307 96.4155 26.4545C96.4155 27.2898 96.5291 28 96.7564 28.5852C96.9893 29.1705 97.3161 29.6165 97.7365 29.9233C98.157 30.2301 98.6484 30.3835 99.2109 30.3835C99.6257 30.3835 99.9979 30.2983 100.327 30.1278C100.663 29.9574 100.938 29.7102 101.154 29.3864C101.376 29.0568 101.521 28.6619 101.589 28.2017H105.015C104.958 29.2017 104.685 30.0824 104.197 30.8438C103.714 31.5994 103.046 32.1903 102.194 32.6165C101.342 33.0426 100.333 33.2557 99.1683 33.2557ZM111.072 33.2472C110.237 33.2472 109.493 33.1023 108.839 32.8125C108.186 32.517 107.669 32.0824 107.288 31.5085C106.913 30.929 106.726 30.2074 106.726 29.3438C106.726 28.6165 106.859 28.0057 107.126 27.5114C107.393 27.017 107.757 26.6193 108.217 26.3182C108.678 26.017 109.2 25.7898 109.786 25.6364C110.376 25.483 110.996 25.375 111.643 25.3125C112.405 25.233 113.018 25.1591 113.484 25.0909C113.95 25.017 114.288 24.9091 114.499 24.767C114.709 24.625 114.814 24.4148 114.814 24.1364V24.0852C114.814 23.5455 114.643 23.1278 114.303 22.8324C113.967 22.5369 113.49 22.3892 112.871 22.3892C112.217 22.3892 111.697 22.5341 111.311 22.8239C110.925 23.108 110.669 23.4659 110.544 23.8977L107.186 23.625C107.357 22.8295 107.692 22.142 108.192 21.5625C108.692 20.9773 109.337 20.5284 110.126 20.2159C110.922 19.8977 111.842 19.7386 112.888 19.7386C113.615 19.7386 114.311 19.8239 114.976 19.9943C115.646 20.1648 116.24 20.429 116.757 20.7869C117.28 21.1449 117.692 21.6051 117.993 22.1676C118.294 22.7244 118.445 23.392 118.445 24.1705V33H115.001V31.1847H114.899C114.689 31.5938 114.408 31.9545 114.055 32.267C113.703 32.5739 113.28 32.8153 112.786 32.9915C112.291 33.1619 111.72 33.2472 111.072 33.2472ZM112.112 30.7415C112.646 30.7415 113.118 30.6364 113.527 30.4261C113.936 30.2102 114.257 29.9205 114.49 29.5568C114.723 29.1932 114.839 28.7812 114.839 28.321V26.9318C114.726 27.0057 114.57 27.0739 114.371 27.1364C114.178 27.1932 113.959 27.2472 113.714 27.2983C113.47 27.3437 113.226 27.3864 112.982 27.4261C112.737 27.4602 112.516 27.4915 112.317 27.5199C111.891 27.5824 111.518 27.6818 111.2 27.8182C110.882 27.9545 110.635 28.1392 110.459 28.3722C110.283 28.5994 110.195 28.8835 110.195 29.2244C110.195 29.7188 110.374 30.0966 110.732 30.358C111.095 30.6136 111.555 30.7415 112.112 30.7415ZM121.33 33V15.5455H128.318C129.602 15.5455 130.673 15.7358 131.531 16.1165C132.389 16.4972 133.034 17.0256 133.466 17.7017C133.898 18.3722 134.114 19.1449 134.114 20.0199C134.114 20.7017 133.977 21.3011 133.705 21.8182C133.432 22.3295 133.057 22.75 132.58 23.0795C132.108 23.4034 131.568 23.6335 130.96 23.7699V23.9403C131.625 23.9687 132.247 24.1562 132.827 24.5028C133.412 24.8494 133.886 25.3352 134.25 25.9602C134.614 26.5795 134.795 27.3182 134.795 28.1761C134.795 29.1023 134.565 29.929 134.105 30.6562C133.651 31.3778 132.977 31.9489 132.085 32.3693C131.193 32.7898 130.094 33 128.787 33H121.33ZM125.02 29.983H128.028C129.057 29.983 129.807 29.7869 130.278 29.3949C130.75 28.9972 130.986 28.4687 130.986 27.8097C130.986 27.3267 130.869 26.9006 130.636 26.5312C130.403 26.1619 130.071 25.8722 129.639 25.6619C129.213 25.4517 128.705 25.3466 128.114 25.3466H125.02V29.983ZM125.02 22.8494H127.756C128.261 22.8494 128.71 22.7614 129.102 22.5852C129.5 22.4034 129.813 22.1477 130.04 21.8182C130.273 21.4886 130.389 21.0938 130.389 20.6335C130.389 20.0028 130.165 19.4943 129.716 19.108C129.273 18.7216 128.642 18.5284 127.824 18.5284H125.02V22.8494ZM140.759 15.5455V33H137.129V15.5455H140.759ZM149.582 33.2557C148.259 33.2557 147.114 32.9744 146.148 32.4119C145.188 31.8437 144.446 31.054 143.923 30.0426C143.401 29.0256 143.139 27.8466 143.139 26.5057C143.139 25.1534 143.401 23.9716 143.923 22.9602C144.446 21.9432 145.188 21.1534 146.148 20.5909C147.114 20.0227 148.259 19.7386 149.582 19.7386C150.906 19.7386 152.048 20.0227 153.009 20.5909C153.974 21.1534 154.719 21.9432 155.241 22.9602C155.764 23.9716 156.026 25.1534 156.026 26.5057C156.026 27.8466 155.764 29.0256 155.241 30.0426C154.719 31.054 153.974 31.8437 153.009 32.4119C152.048 32.9744 150.906 33.2557 149.582 33.2557ZM149.599 30.4432C150.202 30.4432 150.705 30.2727 151.108 29.9318C151.511 29.5852 151.815 29.1136 152.02 28.517C152.23 27.9205 152.335 27.2415 152.335 26.4801C152.335 25.7188 152.23 25.0398 152.02 24.4432C151.815 23.8466 151.511 23.375 151.108 23.0284C150.705 22.6818 150.202 22.5085 149.599 22.5085C148.991 22.5085 148.48 22.6818 148.065 23.0284C147.656 23.375 147.347 23.8466 147.136 24.4432C146.932 25.0398 146.83 25.7188 146.83 26.4801C146.83 27.2415 146.932 27.9205 147.136 28.517C147.347 29.1136 147.656 29.5852 148.065 29.9318C148.48 30.2727 148.991 30.4432 149.599 30.4432ZM164.284 38.1818C163.108 38.1818 162.099 38.0199 161.259 37.696C160.423 37.3778 159.759 36.9432 159.264 36.392C158.77 35.8409 158.449 35.2216 158.301 34.5341L161.659 34.0824C161.761 34.3438 161.923 34.5881 162.145 34.8153C162.366 35.0426 162.659 35.2244 163.023 35.3608C163.392 35.5028 163.841 35.5739 164.369 35.5739C165.159 35.5739 165.81 35.3807 166.321 34.9943C166.838 34.6136 167.097 33.9744 167.097 33.0767V30.6818H166.943C166.784 31.0455 166.545 31.3892 166.227 31.7131C165.909 32.0369 165.5 32.3011 165 32.5057C164.5 32.7102 163.903 32.8125 163.21 32.8125C162.227 32.8125 161.332 32.5852 160.526 32.1307C159.724 31.6705 159.085 30.9687 158.608 30.0256C158.136 29.0767 157.901 27.8778 157.901 26.429C157.901 24.946 158.142 23.7074 158.625 22.7131C159.108 21.7187 159.75 20.9744 160.551 20.4801C161.358 19.9858 162.241 19.7386 163.202 19.7386C163.935 19.7386 164.548 19.8636 165.043 20.1136C165.537 20.358 165.935 20.6648 166.236 21.0341C166.543 21.3977 166.778 21.7557 166.943 22.108H167.08V19.9091H170.685V33.1278C170.685 34.2415 170.412 35.1733 169.866 35.9233C169.321 36.6733 168.565 37.2358 167.599 37.6108C166.639 37.9915 165.534 38.1818 164.284 38.1818ZM164.361 30.0852C164.946 30.0852 165.44 29.9403 165.844 29.6506C166.253 29.3551 166.565 28.9347 166.781 28.3892C167.003 27.8381 167.114 27.179 167.114 26.4119C167.114 25.6449 167.006 24.9801 166.79 24.4176C166.574 23.8494 166.261 23.4091 165.852 23.0966C165.443 22.7841 164.946 22.6278 164.361 22.6278C163.764 22.6278 163.261 22.7898 162.852 23.1136C162.443 23.4318 162.134 23.875 161.923 24.4432C161.713 25.0114 161.608 25.6676 161.608 26.4119C161.608 27.1676 161.713 27.821 161.923 28.3722C162.139 28.9176 162.449 29.3409 162.852 29.642C163.261 29.9375 163.764 30.0852 164.361 30.0852Z" fill="white"/>
<defs>
<filter id="filter0_d_119_875" x="0" y="0" width="56" height="56" filterUnits="userSpaceOnUse" color-interpolation-filters="sRGB">
<feFlood flood-opacity="0" result="BackgroundImageFix"/>
<feColorMatrix in="SourceAlpha" type="matrix" values="0 0 0 0 0 0 0 0 0 0 0 0 0 0 0 0 0 0 127 0" result="hardAlpha"/>
<feOffset dy="4"/>
<feGaussianBlur stdDeviation="2"/>
<feComposite in2="hardAlpha" operator="out"/>
<feColorMatrix type="matrix" values="0 0 0 0 0 0 0 0 0 0 0 0 0 0 0 0 0 0 0.25 0"/>
<feBlend mode="normal" in2="BackgroundImageFix" result="effect1_dropShadow_119_875"/>
<feBlend mode="normal" in="SourceGraphic" in2="effect1_dropShadow_119_875" result="shape"/>
</filter>
</defs>
</svg>
