<svg width="490" height="122" viewBox="0 0 490 122" fill="none" xmlns="http://www.w3.org/2000/svg">
<path d="M21.5568 9.875H16.5795C16.4886 9.23106 16.303 8.65909 16.0227 8.15909C15.7424 7.65151 15.3826 7.2197 14.9432 6.86364C14.5038 6.50757 13.9962 6.23485 13.4205 6.04545C12.8523 5.85606 12.2348 5.76136 11.5682 5.76136C10.3636 5.76136 9.31439 6.06061 8.42045 6.65909C7.52652 7.25 6.83333 8.11364 6.34091 9.25C5.84849 10.3788 5.60227 11.75 5.60227 13.3636C5.60227 15.0227 5.84849 16.4167 6.34091 17.5455C6.84091 18.6742 7.53788 19.5265 8.43182 20.1023C9.32576 20.678 10.3598 20.9659 11.5341 20.9659C12.1932 20.9659 12.803 20.8788 13.3636 20.7045C13.9318 20.5303 14.4356 20.2765 14.875 19.9432C15.3144 19.6023 15.678 19.1894 15.9659 18.7045C16.2614 18.2197 16.4659 17.6667 16.5795 17.0455L21.5568 17.0682C21.428 18.1364 21.1061 19.1667 20.5909 20.1591C20.0833 21.1439 19.3977 22.0265 18.5341 22.8068C17.678 23.5795 16.6553 24.1932 15.4659 24.6477C14.2841 25.0947 12.947 25.3182 11.4545 25.3182C9.37879 25.3182 7.52273 24.8485 5.88636 23.9091C4.25758 22.9697 2.9697 21.6098 2.02273 19.8295C1.08333 18.0492 0.613636 15.8939 0.613636 13.3636C0.613636 10.8258 1.09091 8.66667 2.04545 6.88636C3 5.10606 4.29545 3.75 5.93182 2.81818C7.56818 1.87879 9.40909 1.40909 11.4545 1.40909C12.803 1.40909 14.053 1.59848 15.2045 1.97727C16.3636 2.35606 17.3902 2.90909 18.2841 3.63636C19.178 4.35606 19.9053 5.23864 20.4659 6.28409C21.0341 7.32954 21.3977 8.52651 21.5568 9.875ZM33.1307 25.3409C31.3655 25.3409 29.839 24.9659 28.5511 24.2159C27.2708 23.4583 26.2822 22.4053 25.5852 21.0568C24.8883 19.7008 24.5398 18.1288 24.5398 16.3409C24.5398 14.5379 24.8883 12.9621 25.5852 11.6136C26.2822 10.2576 27.2708 9.20454 28.5511 8.45454C29.839 7.69697 31.3655 7.31818 33.1307 7.31818C34.8958 7.31818 36.4186 7.69697 37.6989 8.45454C38.9867 9.20454 39.9792 10.2576 40.6761 11.6136C41.3731 12.9621 41.7216 14.5379 41.7216 16.3409C41.7216 18.1288 41.3731 19.7008 40.6761 21.0568C39.9792 22.4053 38.9867 23.4583 37.6989 24.2159C36.4186 24.9659 34.8958 25.3409 33.1307 25.3409ZM33.1534 21.5909C33.9564 21.5909 34.6269 21.3636 35.1648 20.9091C35.7027 20.447 36.108 19.8182 36.3807 19.0227C36.661 18.2273 36.8011 17.322 36.8011 16.3068C36.8011 15.2917 36.661 14.3864 36.3807 13.5909C36.108 12.7955 35.7027 12.1667 35.1648 11.7045C34.6269 11.2424 33.9564 11.0114 33.1534 11.0114C32.3428 11.0114 31.661 11.2424 31.108 11.7045C30.5625 12.1667 30.1496 12.7955 29.8693 13.5909C29.5966 14.3864 29.4602 15.2917 29.4602 16.3068C29.4602 17.322 29.5966 18.2273 29.8693 19.0227C30.1496 19.8182 30.5625 20.447 31.108 20.9091C31.661 21.3636 32.3428 21.5909 33.1534 21.5909ZM49.9602 14.9091V25H45.1193V7.54545H49.733V10.625H49.9375C50.3239 9.60985 50.9716 8.80682 51.8807 8.21591C52.7898 7.61742 53.892 7.31818 55.1875 7.31818C56.3996 7.31818 57.4564 7.58333 58.358 8.11364C59.2595 8.64394 59.9602 9.40151 60.4602 10.3864C60.9602 11.3636 61.2102 12.5303 61.2102 13.8864V25H56.3693V14.75C56.3769 13.6818 56.1042 12.8485 55.5511 12.25C54.9981 11.6439 54.2367 11.3409 53.267 11.3409C52.6155 11.3409 52.0398 11.4811 51.5398 11.7614C51.0473 12.0417 50.661 12.4508 50.3807 12.9886C50.108 13.5189 49.9678 14.1591 49.9602 14.9091ZM70.1165 14.9091V25H65.2756V7.54545H69.8892V10.625H70.0938C70.4801 9.60985 71.1278 8.80682 72.0369 8.21591C72.946 7.61742 74.0483 7.31818 75.3438 7.31818C76.5559 7.31818 77.6127 7.58333 78.5142 8.11364C79.4157 8.64394 80.1165 9.40151 80.6165 10.3864C81.1165 11.3636 81.3665 12.5303 81.3665 13.8864V25H76.5256V14.75C76.5331 13.6818 76.2604 12.8485 75.7074 12.25C75.1544 11.6439 74.393 11.3409 73.4233 11.3409C72.7718 11.3409 72.196 11.4811 71.696 11.7614C71.2036 12.0417 70.8172 12.4508 70.5369 12.9886C70.2642 13.5189 70.1241 14.1591 70.1165 14.9091ZM93.3864 25.3409C91.5909 25.3409 90.0455 24.9773 88.75 24.25C87.4621 23.5152 86.4697 22.4773 85.7727 21.1364C85.0758 19.7879 84.7273 18.1932 84.7273 16.3523C84.7273 14.5568 85.0758 12.9811 85.7727 11.625C86.4697 10.2689 87.4508 9.21212 88.7159 8.45454C89.9886 7.69697 91.4811 7.31818 93.1932 7.31818C94.3447 7.31818 95.4167 7.50379 96.4091 7.875C97.4091 8.23864 98.2803 8.78788 99.0227 9.52273C99.7727 10.2576 100.356 11.1818 100.773 12.2955C101.189 13.4015 101.398 14.697 101.398 16.1818V17.5114H86.6591V14.5114H96.8409C96.8409 13.8144 96.6894 13.197 96.3864 12.6591C96.0833 12.1212 95.6629 11.7008 95.125 11.3977C94.5947 11.0871 93.9773 10.9318 93.2727 10.9318C92.5379 10.9318 91.8864 11.1023 91.3182 11.4432C90.7576 11.7765 90.3182 12.2273 90 12.7955C89.6818 13.3561 89.5189 13.9811 89.5114 14.6705V17.5227C89.5114 18.3864 89.6705 19.1326 89.9886 19.7614C90.3144 20.3902 90.7727 20.875 91.3636 21.2159C91.9545 21.5568 92.6553 21.7273 93.4659 21.7273C94.0038 21.7273 94.4962 21.6515 94.9432 21.5C95.3902 21.3485 95.7727 21.1212 96.0909 20.8182C96.4091 20.5152 96.6515 20.1439 96.8182 19.7045L101.295 20C101.068 21.0758 100.602 22.0152 99.8977 22.8182C99.2008 23.6136 98.2992 24.2348 97.1932 24.6818C96.0947 25.1212 94.8258 25.3409 93.3864 25.3409ZM112.693 25.3409C110.905 25.3409 109.367 24.9621 108.08 24.2045C106.799 23.4394 105.814 22.3788 105.125 21.0227C104.443 19.6667 104.102 18.1061 104.102 16.3409C104.102 14.553 104.447 12.9848 105.136 11.6364C105.833 10.2803 106.822 9.22348 108.102 8.46591C109.383 7.70076 110.905 7.31818 112.67 7.31818C114.193 7.31818 115.527 7.5947 116.67 8.14773C117.814 8.70076 118.72 9.47727 119.386 10.4773C120.053 11.4773 120.42 12.6515 120.489 14H115.92C115.792 13.1288 115.451 12.428 114.898 11.8977C114.352 11.3598 113.636 11.0909 112.75 11.0909C112 11.0909 111.345 11.2955 110.784 11.7045C110.231 12.1061 109.799 12.6932 109.489 13.4659C109.178 14.2386 109.023 15.1742 109.023 16.2727C109.023 17.3864 109.174 18.3333 109.477 19.1136C109.788 19.8939 110.223 20.4886 110.784 20.8977C111.345 21.3068 112 21.5114 112.75 21.5114C113.303 21.5114 113.799 21.3977 114.239 21.1705C114.686 20.9432 115.053 20.6136 115.341 20.1818C115.636 19.7424 115.83 19.2159 115.92 18.6023H120.489C120.413 19.9356 120.049 21.1098 119.398 22.125C118.754 23.1326 117.864 23.9205 116.727 24.4886C115.591 25.0568 114.246 25.3409 112.693 25.3409ZM133.122 7.54545V11.1818H122.611V7.54545H133.122ZM124.997 3.36364H129.838V19.6364C129.838 20.0833 129.906 20.4318 130.043 20.6818C130.179 20.9242 130.368 21.0947 130.611 21.1932C130.861 21.2917 131.149 21.3409 131.474 21.3409C131.702 21.3409 131.929 21.322 132.156 21.2841C132.384 21.2386 132.558 21.2045 132.679 21.1818L133.44 24.7841C133.198 24.8598 132.857 24.947 132.418 25.0455C131.978 25.1515 131.444 25.2159 130.815 25.2386C129.649 25.2841 128.626 25.1288 127.747 24.7727C126.876 24.4167 126.198 23.8636 125.713 23.1136C125.228 22.3636 124.99 21.4167 124.997 20.2727V3.36364ZM147.625 25L142.875 7.54545H147.773L150.477 19.2727H150.636L153.455 7.54545H158.261L161.125 19.2045H161.273L163.932 7.54545H168.818L164.08 25H158.955L155.955 14.0227H155.739L152.739 25H147.625ZM171.651 25V7.54545H176.491V25H171.651ZM174.082 5.29545C173.363 5.29545 172.745 5.05682 172.23 4.57954C171.723 4.0947 171.469 3.51515 171.469 2.84091C171.469 2.17424 171.723 1.60227 172.23 1.125C172.745 0.640151 173.363 0.397726 174.082 0.397726C174.802 0.397726 175.416 0.640151 175.923 1.125C176.438 1.60227 176.696 2.17424 176.696 2.84091C176.696 3.51515 176.438 4.0947 175.923 4.57954C175.416 5.05682 174.802 5.29545 174.082 5.29545ZM189.903 7.54545V11.1818H179.392V7.54545H189.903ZM181.778 3.36364H186.619V19.6364C186.619 20.0833 186.688 20.4318 186.824 20.6818C186.96 20.9242 187.15 21.0947 187.392 21.1932C187.642 21.2917 187.93 21.3409 188.256 21.3409C188.483 21.3409 188.71 21.322 188.938 21.2841C189.165 21.2386 189.339 21.2045 189.46 21.1818L190.222 24.7841C189.979 24.8598 189.638 24.947 189.199 25.0455C188.759 25.1515 188.225 25.2159 187.597 25.2386C186.43 25.2841 185.407 25.1288 184.528 24.7727C183.657 24.4167 182.979 23.8636 182.494 23.1136C182.009 22.3636 181.771 21.4167 181.778 20.2727V3.36364ZM198.523 14.9091V25H193.682V1.72727H198.386V10.625H198.591C198.985 9.5947 199.621 8.78788 200.5 8.20454C201.379 7.61364 202.481 7.31818 203.807 7.31818C205.019 7.31818 206.076 7.58333 206.977 8.11364C207.886 8.63636 208.591 9.39015 209.091 10.375C209.598 11.3523 209.848 12.5227 209.841 13.8864V25H205V14.75C205.008 13.6742 204.735 12.8371 204.182 12.2386C203.636 11.6402 202.871 11.3409 201.886 11.3409C201.227 11.3409 200.644 11.4811 200.136 11.7614C199.636 12.0417 199.242 12.4508 198.955 12.9886C198.674 13.5189 198.53 14.1591 198.523 14.9091ZM229.443 25.3409C227.678 25.3409 226.152 24.9659 224.864 24.2159C223.583 23.4583 222.595 22.4053 221.898 21.0568C221.201 19.7008 220.852 18.1288 220.852 16.3409C220.852 14.5379 221.201 12.9621 221.898 11.6136C222.595 10.2576 223.583 9.20454 224.864 8.45454C226.152 7.69697 227.678 7.31818 229.443 7.31818C231.208 7.31818 232.731 7.69697 234.011 8.45454C235.299 9.20454 236.292 10.2576 236.989 11.6136C237.686 12.9621 238.034 14.5379 238.034 16.3409C238.034 18.1288 237.686 19.7008 236.989 21.0568C236.292 22.4053 235.299 23.4583 234.011 24.2159C232.731 24.9659 231.208 25.3409 229.443 25.3409ZM229.466 21.5909C230.269 21.5909 230.939 21.3636 231.477 20.9091C232.015 20.447 232.42 19.8182 232.693 19.0227C232.973 18.2273 233.114 17.322 233.114 16.3068C233.114 15.2917 232.973 14.3864 232.693 13.5909C232.42 12.7955 232.015 12.1667 231.477 11.7045C230.939 11.2424 230.269 11.0114 229.466 11.0114C228.655 11.0114 227.973 11.2424 227.42 11.7045C226.875 12.1667 226.462 12.7955 226.182 13.5909C225.909 14.3864 225.773 15.2917 225.773 16.3068C225.773 17.322 225.909 18.2273 226.182 19.0227C226.462 19.8182 226.875 20.447 227.42 20.9091C227.973 21.3636 228.655 21.5909 229.466 21.5909ZM250.716 7.54545V11.1818H240.205V7.54545H250.716ZM242.591 3.36364H247.432V19.6364C247.432 20.0833 247.5 20.4318 247.636 20.6818C247.773 20.9242 247.962 21.0947 248.205 21.1932C248.455 21.2917 248.742 21.3409 249.068 21.3409C249.295 21.3409 249.523 21.322 249.75 21.2841C249.977 21.2386 250.152 21.2045 250.273 21.1818L251.034 24.7841C250.792 24.8598 250.451 24.947 250.011 25.0455C249.572 25.1515 249.038 25.2159 248.409 25.2386C247.242 25.2841 246.22 25.1288 245.341 24.7727C244.47 24.4167 243.792 23.8636 243.307 23.1136C242.822 22.3636 242.583 21.4167 242.591 20.2727V3.36364ZM259.335 14.9091V25H254.494V1.72727H259.199V10.625H259.403C259.797 9.5947 260.434 8.78788 261.312 8.20454C262.191 7.61364 263.294 7.31818 264.619 7.31818C265.831 7.31818 266.888 7.58333 267.79 8.11364C268.699 8.63636 269.403 9.39015 269.903 10.375C270.411 11.3523 270.661 12.5227 270.653 13.8864V25H265.812V14.75C265.82 13.6742 265.547 12.8371 264.994 12.2386C264.449 11.6402 263.684 11.3409 262.699 11.3409C262.04 11.3409 261.456 11.4811 260.949 11.7614C260.449 12.0417 260.055 12.4508 259.767 12.9886C259.487 13.5189 259.343 14.1591 259.335 14.9091ZM282.668 25.3409C280.872 25.3409 279.327 24.9773 278.031 24.25C276.743 23.5152 275.751 22.4773 275.054 21.1364C274.357 19.7879 274.009 18.1932 274.009 16.3523C274.009 14.5568 274.357 12.9811 275.054 11.625C275.751 10.2689 276.732 9.21212 277.997 8.45454C279.27 7.69697 280.762 7.31818 282.474 7.31818C283.626 7.31818 284.698 7.50379 285.69 7.875C286.69 8.23864 287.562 8.78788 288.304 9.52273C289.054 10.2576 289.637 11.1818 290.054 12.2955C290.471 13.4015 290.679 14.697 290.679 16.1818V17.5114H275.94V14.5114H286.122C286.122 13.8144 285.971 13.197 285.668 12.6591C285.365 12.1212 284.944 11.7008 284.406 11.3977C283.876 11.0871 283.259 10.9318 282.554 10.9318C281.819 10.9318 281.168 11.1023 280.599 11.4432C280.039 11.7765 279.599 12.2273 279.281 12.7955C278.963 13.3561 278.8 13.9811 278.793 14.6705V17.5227C278.793 18.3864 278.952 19.1326 279.27 19.7614C279.596 20.3902 280.054 20.875 280.645 21.2159C281.236 21.5568 281.937 21.7273 282.747 21.7273C283.285 21.7273 283.777 21.6515 284.224 21.5C284.671 21.3485 285.054 21.1212 285.372 20.8182C285.69 20.5152 285.933 20.1439 286.099 19.7045L290.577 20C290.349 21.0758 289.884 22.0152 289.179 22.8182C288.482 23.6136 287.58 24.2348 286.474 24.6818C285.376 25.1212 284.107 25.3409 282.668 25.3409ZM294.088 25V7.54545H298.781V10.5909H298.963C299.281 9.50758 299.815 8.68939 300.565 8.13636C301.315 7.57576 302.179 7.29545 303.156 7.29545C303.399 7.29545 303.66 7.31061 303.94 7.34091C304.221 7.37121 304.467 7.41288 304.679 7.46591V11.7614C304.452 11.6932 304.137 11.6326 303.736 11.5795C303.334 11.5265 302.967 11.5 302.634 11.5C301.921 11.5 301.285 11.6553 300.724 11.9659C300.171 12.2689 299.732 12.6932 299.406 13.2386C299.088 13.7841 298.929 14.4129 298.929 15.125V25H294.088ZM321.52 25.2841C320.194 25.2841 318.993 24.9432 317.918 24.2614C316.849 23.572 316.001 22.5606 315.372 21.2273C314.751 19.8864 314.44 18.2424 314.44 16.2955C314.44 14.2955 314.762 12.6326 315.406 11.3068C316.05 9.97348 316.906 8.97727 317.974 8.31818C319.05 7.65152 320.228 7.31818 321.509 7.31818C322.486 7.31818 323.3 7.48485 323.952 7.81818C324.611 8.14394 325.141 8.55303 325.543 9.04545C325.952 9.5303 326.262 10.0076 326.474 10.4773H326.622V1.72727H331.452V25H326.679V22.2045H326.474C326.247 22.6894 325.925 23.1705 325.509 23.6477C325.099 24.1174 324.565 24.5076 323.906 24.8182C323.255 25.1288 322.459 25.2841 321.52 25.2841ZM323.054 21.4318C323.834 21.4318 324.493 21.2197 325.031 20.7955C325.577 20.3636 325.993 19.7614 326.281 18.9886C326.577 18.2159 326.724 17.3106 326.724 16.2727C326.724 15.2348 326.58 14.3333 326.293 13.5682C326.005 12.803 325.588 12.2121 325.043 11.7955C324.497 11.3788 323.834 11.1705 323.054 11.1705C322.259 11.1705 321.588 11.3864 321.043 11.8182C320.497 12.25 320.084 12.8485 319.804 13.6136C319.524 14.3788 319.384 15.2652 319.384 16.2727C319.384 17.2879 319.524 18.1856 319.804 18.9659C320.092 19.7386 320.505 20.3447 321.043 20.7841C321.588 21.2159 322.259 21.4318 323.054 21.4318ZM343.636 25.3409C341.841 25.3409 340.295 24.9773 339 24.25C337.712 23.5152 336.72 22.4773 336.023 21.1364C335.326 19.7879 334.977 18.1932 334.977 16.3523C334.977 14.5568 335.326 12.9811 336.023 11.625C336.72 10.2689 337.701 9.21212 338.966 8.45454C340.239 7.69697 341.731 7.31818 343.443 7.31818C344.595 7.31818 345.667 7.50379 346.659 7.875C347.659 8.23864 348.53 8.78788 349.273 9.52273C350.023 10.2576 350.606 11.1818 351.023 12.2955C351.439 13.4015 351.648 14.697 351.648 16.1818V17.5114H336.909V14.5114H347.091C347.091 13.8144 346.939 13.197 346.636 12.6591C346.333 12.1212 345.913 11.7008 345.375 11.3977C344.845 11.0871 344.227 10.9318 343.523 10.9318C342.788 10.9318 342.136 11.1023 341.568 11.4432C341.008 11.7765 340.568 12.2273 340.25 12.7955C339.932 13.3561 339.769 13.9811 339.761 14.6705V17.5227C339.761 18.3864 339.92 19.1326 340.239 19.7614C340.564 20.3902 341.023 20.875 341.614 21.2159C342.205 21.5568 342.905 21.7273 343.716 21.7273C344.254 21.7273 344.746 21.6515 345.193 21.5C345.64 21.3485 346.023 21.1212 346.341 20.8182C346.659 20.5152 346.902 20.1439 347.068 19.7045L351.545 20C351.318 21.0758 350.852 22.0152 350.148 22.8182C349.451 23.6136 348.549 24.2348 347.443 24.6818C346.345 25.1212 345.076 25.3409 343.636 25.3409ZM370.861 7.54545L364.759 25H359.304L353.202 7.54545H358.315L361.94 20.0341H362.122L365.736 7.54545H370.861ZM380.98 25.3409C379.185 25.3409 377.639 24.9773 376.344 24.25C375.056 23.5152 374.063 22.4773 373.366 21.1364C372.67 19.7879 372.321 18.1932 372.321 16.3523C372.321 14.5568 372.67 12.9811 373.366 11.625C374.063 10.2689 375.045 9.21212 376.31 8.45454C377.582 7.69697 379.075 7.31818 380.787 7.31818C381.938 7.31818 383.01 7.50379 384.003 7.875C385.003 8.23864 385.874 8.78788 386.616 9.52273C387.366 10.2576 387.95 11.1818 388.366 12.2955C388.783 13.4015 388.991 14.697 388.991 16.1818V17.5114H374.253V14.5114H384.435C384.435 13.8144 384.283 13.197 383.98 12.6591C383.677 12.1212 383.257 11.7008 382.719 11.3977C382.188 11.0871 381.571 10.9318 380.866 10.9318C380.132 10.9318 379.48 11.1023 378.912 11.4432C378.351 11.7765 377.912 12.2273 377.594 12.7955C377.276 13.3561 377.113 13.9811 377.105 14.6705V17.5227C377.105 18.3864 377.264 19.1326 377.582 19.7614C377.908 20.3902 378.366 20.875 378.957 21.2159C379.548 21.5568 380.249 21.7273 381.06 21.7273C381.598 21.7273 382.09 21.6515 382.537 21.5C382.984 21.3485 383.366 21.1212 383.685 20.8182C384.003 20.5152 384.245 20.1439 384.412 19.7045L388.889 20C388.662 21.0758 388.196 22.0152 387.491 22.8182C386.795 23.6136 385.893 24.2348 384.787 24.6818C383.688 25.1212 382.42 25.3409 380.98 25.3409ZM397.241 1.72727V25H392.401V1.72727H397.241ZM409.256 25.3409C407.491 25.3409 405.964 24.9659 404.676 24.2159C403.396 23.4583 402.407 22.4053 401.71 21.0568C401.013 19.7008 400.665 18.1288 400.665 16.3409C400.665 14.5379 401.013 12.9621 401.71 11.6136C402.407 10.2576 403.396 9.20454 404.676 8.45454C405.964 7.69697 407.491 7.31818 409.256 7.31818C411.021 7.31818 412.544 7.69697 413.824 8.45454C415.112 9.20454 416.104 10.2576 416.801 11.6136C417.498 12.9621 417.847 14.5379 417.847 16.3409C417.847 18.1288 417.498 19.7008 416.801 21.0568C416.104 22.4053 415.112 23.4583 413.824 24.2159C412.544 24.9659 411.021 25.3409 409.256 25.3409ZM409.278 21.5909C410.081 21.5909 410.752 21.3636 411.29 20.9091C411.828 20.447 412.233 19.8182 412.506 19.0227C412.786 18.2273 412.926 17.322 412.926 16.3068C412.926 15.2917 412.786 14.3864 412.506 13.5909C412.233 12.7955 411.828 12.1667 411.29 11.7045C410.752 11.2424 410.081 11.0114 409.278 11.0114C408.468 11.0114 407.786 11.2424 407.233 11.7045C406.688 12.1667 406.275 12.7955 405.994 13.5909C405.722 14.3864 405.585 15.2917 405.585 16.3068C405.585 17.322 405.722 18.2273 405.994 19.0227C406.275 19.8182 406.688 20.447 407.233 20.9091C407.786 21.3636 408.468 21.5909 409.278 21.5909ZM421.244 31.5455V7.54545H426.017V10.4773H426.233C426.445 10.0076 426.752 9.5303 427.153 9.04545C427.563 8.55303 428.093 8.14394 428.744 7.81818C429.403 7.48485 430.222 7.31818 431.199 7.31818C432.472 7.31818 433.646 7.65152 434.722 8.31818C435.797 8.97727 436.657 9.97348 437.301 11.3068C437.945 12.6326 438.267 14.2955 438.267 16.2955C438.267 18.2424 437.953 19.8864 437.324 21.2273C436.703 22.5606 435.854 23.572 434.778 24.2614C433.71 24.9432 432.513 25.2841 431.188 25.2841C430.248 25.2841 429.449 25.1288 428.79 24.8182C428.138 24.5076 427.604 24.1174 427.188 23.6477C426.771 23.1705 426.453 22.6894 426.233 22.2045H426.085V31.5455H421.244ZM425.983 16.2727C425.983 17.3106 426.127 18.2159 426.415 18.9886C426.703 19.7614 427.119 20.3636 427.665 20.7955C428.21 21.2197 428.873 21.4318 429.653 21.4318C430.441 21.4318 431.108 21.2159 431.653 20.7841C432.199 20.3447 432.612 19.7386 432.892 18.9659C433.18 18.1856 433.324 17.2879 433.324 16.2727C433.324 15.2652 433.184 14.3788 432.903 13.6136C432.623 12.8485 432.21 12.25 431.665 11.8182C431.119 11.3864 430.449 11.1705 429.653 11.1705C428.866 11.1705 428.199 11.3788 427.653 11.7955C427.116 12.2121 426.703 12.803 426.415 13.5682C426.127 14.3333 425.983 15.2348 425.983 16.2727ZM449.699 25.3409C447.903 25.3409 446.358 24.9773 445.062 24.25C443.775 23.5152 442.782 22.4773 442.085 21.1364C441.388 19.7879 441.04 18.1932 441.04 16.3523C441.04 14.5568 441.388 12.9811 442.085 11.625C442.782 10.2689 443.763 9.21212 445.028 8.45454C446.301 7.69697 447.794 7.31818 449.506 7.31818C450.657 7.31818 451.729 7.50379 452.722 7.875C453.722 8.23864 454.593 8.78788 455.335 9.52273C456.085 10.2576 456.669 11.1818 457.085 12.2955C457.502 13.4015 457.71 14.697 457.71 16.1818V17.5114H442.972V14.5114H453.153C453.153 13.8144 453.002 13.197 452.699 12.6591C452.396 12.1212 451.975 11.7008 451.438 11.3977C450.907 11.0871 450.29 10.9318 449.585 10.9318C448.85 10.9318 448.199 11.1023 447.631 11.4432C447.07 11.7765 446.631 12.2273 446.312 12.7955C445.994 13.3561 445.831 13.9811 445.824 14.6705V17.5227C445.824 18.3864 445.983 19.1326 446.301 19.7614C446.627 20.3902 447.085 20.875 447.676 21.2159C448.267 21.5568 448.968 21.7273 449.778 21.7273C450.316 21.7273 450.809 21.6515 451.256 21.5C451.703 21.3485 452.085 21.1212 452.403 20.8182C452.722 20.5152 452.964 20.1439 453.131 19.7045L457.608 20C457.381 21.0758 456.915 22.0152 456.21 22.8182C455.513 23.6136 454.612 24.2348 453.506 24.6818C452.407 25.1212 451.138 25.3409 449.699 25.3409ZM461.119 25V7.54545H465.812V10.5909H465.994C466.313 9.50758 466.847 8.68939 467.597 8.13636C468.347 7.57576 469.21 7.29545 470.188 7.29545C470.43 7.29545 470.691 7.31061 470.972 7.34091C471.252 7.37121 471.498 7.41288 471.71 7.46591V11.7614C471.483 11.6932 471.169 11.6326 470.767 11.5795C470.366 11.5265 469.998 11.5 469.665 11.5C468.953 11.5 468.316 11.6553 467.756 11.9659C467.203 12.2689 466.763 12.6932 466.438 13.2386C466.119 13.7841 465.96 14.4129 465.96 15.125V25H461.119ZM488.986 12.5227L484.554 12.7955C484.478 12.4167 484.315 12.0758 484.065 11.7727C483.815 11.4621 483.486 11.2159 483.077 11.0341C482.675 10.8447 482.194 10.75 481.634 10.75C480.884 10.75 480.251 10.9091 479.736 11.2273C479.221 11.5379 478.963 11.9545 478.963 12.4773C478.963 12.8939 479.13 13.2462 479.463 13.5341C479.796 13.822 480.368 14.053 481.179 14.2273L484.338 14.8636C486.035 15.2121 487.3 15.7727 488.134 16.5455C488.967 17.3182 489.384 18.3333 489.384 19.5909C489.384 20.7348 489.046 21.7386 488.372 22.6023C487.705 23.4659 486.789 24.1402 485.622 24.625C484.463 25.1023 483.126 25.3409 481.611 25.3409C479.3 25.3409 477.459 24.8598 476.088 23.8977C474.724 22.928 473.925 21.6098 473.69 19.9432L478.452 19.6932C478.596 20.3977 478.944 20.9356 479.497 21.3068C480.05 21.6705 480.759 21.8523 481.622 21.8523C482.471 21.8523 483.152 21.6894 483.668 21.3636C484.19 21.0303 484.455 20.6023 484.463 20.0795C484.455 19.6402 484.27 19.2803 483.906 19C483.543 18.7121 482.982 18.4924 482.224 18.3409L479.202 17.7386C477.497 17.3977 476.228 16.8068 475.395 15.9659C474.569 15.125 474.156 14.053 474.156 12.75C474.156 11.6288 474.459 10.6629 475.065 9.85227C475.679 9.04167 476.539 8.41667 477.645 7.97727C478.759 7.53788 480.062 7.31818 481.554 7.31818C483.759 7.31818 485.493 7.78409 486.759 8.71591C488.031 9.64773 488.774 10.9167 488.986 12.5227ZM5.90909 70.3295C4.79545 70.3295 3.80303 70.1364 2.93182 69.75C2.06061 69.3561 1.37121 68.7765 0.863636 68.0114C0.363636 67.2386 0.113636 66.2765 0.113636 65.125C0.113636 64.1553 0.291667 63.3409 0.647727 62.6818C1.00379 62.0227 1.48864 61.4924 2.10227 61.0909C2.71591 60.6894 3.41288 60.3864 4.19318 60.1818C4.98106 59.9773 5.80682 59.8333 6.67045 59.75C7.68561 59.6439 8.50379 59.5455 9.125 59.4545C9.74621 59.3561 10.197 59.2121 10.4773 59.0227C10.7576 58.8333 10.8977 58.553 10.8977 58.1818V58.1136C10.8977 57.3939 10.6705 56.8371 10.2159 56.4432C9.76894 56.0492 9.13258 55.8523 8.30682 55.8523C7.43561 55.8523 6.74242 56.0455 6.22727 56.4318C5.71212 56.8106 5.37121 57.2879 5.20455 57.8636L0.727273 57.5C0.954546 56.4394 1.40152 55.5227 2.06818 54.75C2.73485 53.9697 3.5947 53.3712 4.64773 52.9545C5.70833 52.5303 6.93561 52.3182 8.32955 52.3182C9.29924 52.3182 10.2273 52.4318 11.1136 52.6591C12.0076 52.8864 12.7992 53.2386 13.4886 53.7159C14.1856 54.1932 14.7348 54.8068 15.1364 55.5568C15.5379 56.2992 15.7386 57.1894 15.7386 58.2273V70H11.1477V67.5795H11.0114C10.7311 68.125 10.3561 68.6061 9.88636 69.0227C9.41667 69.4318 8.85227 69.7538 8.19318 69.9886C7.53409 70.2159 6.77273 70.3295 5.90909 70.3295ZM7.29545 66.9886C8.00758 66.9886 8.63636 66.8485 9.18182 66.5682C9.72727 66.2803 10.1553 65.8939 10.4659 65.4091C10.7765 64.9242 10.9318 64.375 10.9318 63.7614V61.9091C10.7803 62.0076 10.572 62.0985 10.3068 62.1818C10.0492 62.2576 9.75758 62.3295 9.43182 62.3977C9.10606 62.4583 8.7803 62.5152 8.45455 62.5682C8.12879 62.6136 7.83333 62.6553 7.56818 62.6932C7 62.7765 6.50379 62.9091 6.07955 63.0909C5.6553 63.2727 5.32576 63.5189 5.09091 63.8295C4.85606 64.1326 4.73864 64.5114 4.73864 64.9659C4.73864 65.625 4.97727 66.1288 5.45455 66.4773C5.93939 66.8182 6.55303 66.9886 7.29545 66.9886ZM29.0284 52.5455V56.1818H18.517V52.5455H29.0284ZM20.9034 48.3636H25.7443V64.6364C25.7443 65.0833 25.8125 65.4318 25.9489 65.6818C26.0852 65.9242 26.2746 66.0947 26.517 66.1932C26.767 66.2917 27.0549 66.3409 27.3807 66.3409C27.608 66.3409 27.8352 66.322 28.0625 66.2841C28.2898 66.2386 28.464 66.2045 28.5852 66.1818L29.3466 69.7841C29.1042 69.8598 28.7633 69.947 28.3239 70.0455C27.8845 70.1515 27.3504 70.2159 26.7216 70.2386C25.5549 70.2841 24.5322 70.1288 23.6534 69.7727C22.7822 69.4167 22.1042 68.8636 21.6193 68.1136C21.1345 67.3636 20.8958 66.4167 20.9034 65.2727V48.3636ZM48.429 70H40.179V46.7273H48.4972C50.8381 46.7273 52.8532 47.1932 54.5426 48.125C56.232 49.0492 57.5313 50.3788 58.4403 52.1136C59.357 53.8485 59.8153 55.9242 59.8153 58.3409C59.8153 60.7652 59.357 62.8485 58.4403 64.5909C57.5313 66.3333 56.2244 67.6705 54.5199 68.6023C52.8229 69.5341 50.7926 70 48.429 70ZM45.0994 65.7841H48.2244C49.679 65.7841 50.9025 65.5265 51.8949 65.0114C52.8949 64.4886 53.6449 63.6818 54.1449 62.5909C54.6525 61.4924 54.9062 60.0758 54.9062 58.3409C54.9062 56.6212 54.6525 55.2159 54.1449 54.125C53.6449 53.0341 52.8987 52.2311 51.9062 51.7159C50.9138 51.2008 49.6903 50.9432 48.2358 50.9432H45.0994V65.7841ZM71.5739 70.3409C69.7784 70.3409 68.233 69.9773 66.9375 69.25C65.6496 68.5152 64.6572 67.4773 63.9602 66.1364C63.2633 64.7879 62.9148 63.1932 62.9148 61.3523C62.9148 59.5568 63.2633 57.9811 63.9602 56.625C64.6572 55.2689 65.6383 54.2121 66.9034 53.4545C68.1761 52.697 69.6686 52.3182 71.3807 52.3182C72.5322 52.3182 73.6042 52.5038 74.5966 52.875C75.5966 53.2386 76.4678 53.7879 77.2102 54.5227C77.9602 55.2576 78.5436 56.1818 78.9602 57.2955C79.3769 58.4015 79.5852 59.697 79.5852 61.1818V62.5114H64.8466V59.5114H75.0284C75.0284 58.8144 74.8769 58.197 74.5739 57.6591C74.2708 57.1212 73.8504 56.7008 73.3125 56.3977C72.7822 56.0871 72.1648 55.9318 71.4602 55.9318C70.7254 55.9318 70.0739 56.1023 69.5057 56.4432C68.9451 56.7765 68.5057 57.2273 68.1875 57.7955C67.8693 58.3561 67.7064 58.9811 67.6989 59.6705V62.5227C67.6989 63.3864 67.858 64.1326 68.1761 64.7614C68.5019 65.3902 68.9602 65.875 69.5511 66.2159C70.142 66.5568 70.8428 66.7273 71.6534 66.7273C72.1913 66.7273 72.6837 66.6515 73.1307 66.5C73.5777 66.3485 73.9602 66.1212 74.2784 65.8182C74.5966 65.5152 74.839 65.1439 75.0057 64.7045L79.483 65C79.2557 66.0758 78.7898 67.0152 78.0852 67.8182C77.3883 68.6136 76.4867 69.2348 75.3807 69.6818C74.2822 70.1212 73.0133 70.3409 71.5739 70.3409ZM90.8807 70.3409C89.0928 70.3409 87.5549 69.9621 86.267 69.2045C84.9867 68.4394 84.0019 67.3788 83.3125 66.0227C82.6307 64.6667 82.2898 63.1061 82.2898 61.3409C82.2898 59.553 82.6345 57.9848 83.3239 56.6364C84.0208 55.2803 85.0095 54.2235 86.2898 53.4659C87.5701 52.7008 89.0928 52.3182 90.858 52.3182C92.3807 52.3182 93.714 52.5947 94.858 53.1477C96.0019 53.7008 96.9072 54.4773 97.5739 55.4773C98.2405 56.4773 98.608 57.6515 98.6761 59H94.108C93.9792 58.1288 93.6383 57.428 93.0852 56.8977C92.5398 56.3598 91.8239 56.0909 90.9375 56.0909C90.1875 56.0909 89.5322 56.2955 88.9716 56.7045C88.4186 57.1061 87.9867 57.6932 87.6761 58.4659C87.3655 59.2386 87.2102 60.1742 87.2102 61.2727C87.2102 62.3864 87.3617 63.3333 87.6648 64.1136C87.9754 64.8939 88.411 65.4886 88.9716 65.8977C89.5322 66.3068 90.1875 66.5114 90.9375 66.5114C91.4905 66.5114 91.9867 66.3977 92.4261 66.1705C92.8731 65.9432 93.2405 65.6136 93.5284 65.1818C93.8239 64.7424 94.017 64.2159 94.108 63.6023H98.6761C98.6004 64.9356 98.2367 66.1098 97.5852 67.125C96.9413 68.1326 96.0511 68.9205 94.9148 69.4886C93.7784 70.0568 92.4337 70.3409 90.8807 70.3409ZM107.003 70.3295C105.889 70.3295 104.897 70.1364 104.026 69.75C103.154 69.3561 102.465 68.7765 101.957 68.0114C101.457 67.2386 101.207 66.2765 101.207 65.125C101.207 64.1553 101.385 63.3409 101.741 62.6818C102.098 62.0227 102.582 61.4924 103.196 61.0909C103.81 60.6894 104.507 60.3864 105.287 60.1818C106.075 59.9773 106.901 59.8333 107.764 59.75C108.779 59.6439 109.598 59.5455 110.219 59.4545C110.84 59.3561 111.291 59.2121 111.571 59.0227C111.851 58.8333 111.991 58.553 111.991 58.1818V58.1136C111.991 57.3939 111.764 56.8371 111.31 56.4432C110.863 56.0492 110.226 55.8523 109.401 55.8523C108.529 55.8523 107.836 56.0455 107.321 56.4318C106.806 56.8106 106.465 57.2879 106.298 57.8636L101.821 57.5C102.048 56.4394 102.495 55.5227 103.162 54.75C103.829 53.9697 104.688 53.3712 105.741 52.9545C106.802 52.5303 108.029 52.3182 109.423 52.3182C110.393 52.3182 111.321 52.4318 112.207 52.6591C113.101 52.8864 113.893 53.2386 114.582 53.7159C115.279 54.1932 115.829 54.8068 116.23 55.5568C116.632 56.2992 116.832 57.1894 116.832 58.2273V70H112.241V67.5795H112.105C111.825 68.125 111.45 68.6061 110.98 69.0227C110.51 69.4318 109.946 69.7538 109.287 69.9886C108.628 70.2159 107.866 70.3295 107.003 70.3295ZM108.389 66.9886C109.101 66.9886 109.73 66.8485 110.276 66.5682C110.821 66.2803 111.249 65.8939 111.56 65.4091C111.87 64.9242 112.026 64.375 112.026 63.7614V61.9091C111.874 62.0076 111.666 62.0985 111.401 62.1818C111.143 62.2576 110.851 62.3295 110.526 62.3977C110.2 62.4583 109.874 62.5152 109.548 62.5682C109.223 62.6136 108.927 62.6553 108.662 62.6932C108.094 62.7765 107.598 62.9091 107.173 63.0909C106.749 63.2727 106.42 63.5189 106.185 63.8295C105.95 64.1326 105.832 64.5114 105.832 64.9659C105.832 65.625 106.071 66.1288 106.548 66.4773C107.033 66.8182 107.647 66.9886 108.389 66.9886ZM128.702 76.9091C127.134 76.9091 125.789 76.6932 124.668 76.2614C123.554 75.8371 122.668 75.2576 122.009 74.5227C121.349 73.7879 120.921 72.9621 120.724 72.0455L125.202 71.4432C125.338 71.7917 125.554 72.1174 125.849 72.4205C126.145 72.7235 126.535 72.9659 127.02 73.1477C127.512 73.3371 128.111 73.4318 128.815 73.4318C129.868 73.4318 130.736 73.1742 131.418 72.6591C132.107 72.1515 132.452 71.2992 132.452 70.1023V66.9091H132.247C132.035 67.3939 131.717 67.8523 131.293 68.2841C130.868 68.7159 130.323 69.0682 129.656 69.3409C128.99 69.6136 128.194 69.75 127.27 69.75C125.959 69.75 124.766 69.447 123.69 68.8409C122.622 68.2273 121.77 67.2917 121.134 66.0341C120.505 64.7689 120.19 63.1705 120.19 61.2386C120.19 59.2614 120.512 57.6098 121.156 56.2841C121.8 54.9583 122.656 53.9659 123.724 53.3068C124.8 52.6477 125.978 52.3182 127.259 52.3182C128.236 52.3182 129.054 52.4848 129.713 52.8182C130.372 53.1439 130.902 53.553 131.304 54.0455C131.713 54.5303 132.027 55.0076 132.247 55.4773H132.429V52.5455H137.236V70.1705C137.236 71.6553 136.872 72.8977 136.145 73.8977C135.418 74.8977 134.41 75.6477 133.122 76.1477C131.842 76.6553 130.368 76.9091 128.702 76.9091ZM128.804 66.1136C129.584 66.1136 130.243 65.9205 130.781 65.5341C131.327 65.1402 131.743 64.5795 132.031 63.8523C132.327 63.1174 132.474 62.2386 132.474 61.2159C132.474 60.1932 132.33 59.3068 132.043 58.5568C131.755 57.7992 131.338 57.2121 130.793 56.7955C130.247 56.3788 129.584 56.1705 128.804 56.1705C128.009 56.1705 127.338 56.3864 126.793 56.8182C126.247 57.2424 125.834 57.8333 125.554 58.5909C125.274 59.3485 125.134 60.2235 125.134 61.2159C125.134 62.2235 125.274 63.0947 125.554 63.8295C125.842 64.5568 126.255 65.1212 126.793 65.5227C127.338 65.9167 128.009 66.1136 128.804 66.1136ZM149.224 70.3409C147.459 70.3409 145.933 69.9659 144.645 69.2159C143.365 68.4583 142.376 67.4053 141.679 66.0568C140.982 64.7008 140.634 63.1288 140.634 61.3409C140.634 59.5379 140.982 57.9621 141.679 56.6136C142.376 55.2576 143.365 54.2045 144.645 53.4545C145.933 52.697 147.459 52.3182 149.224 52.3182C150.99 52.3182 152.512 52.697 153.793 53.4545C155.08 54.2045 156.073 55.2576 156.77 56.6136C157.467 57.9621 157.815 59.5379 157.815 61.3409C157.815 63.1288 157.467 64.7008 156.77 66.0568C156.073 67.4053 155.08 68.4583 153.793 69.2159C152.512 69.9659 150.99 70.3409 149.224 70.3409ZM149.247 66.5909C150.05 66.5909 150.721 66.3636 151.259 65.9091C151.796 65.447 152.202 64.8182 152.474 64.0227C152.755 63.2273 152.895 62.322 152.895 61.3068C152.895 60.2917 152.755 59.3864 152.474 58.5909C152.202 57.7955 151.796 57.1667 151.259 56.7045C150.721 56.2424 150.05 56.0114 149.247 56.0114C148.437 56.0114 147.755 56.2424 147.202 56.7045C146.656 57.1667 146.243 57.7955 145.963 58.5909C145.69 59.3864 145.554 60.2917 145.554 61.3068C145.554 62.322 145.69 63.2273 145.963 64.0227C146.243 64.8182 146.656 65.447 147.202 65.9091C147.755 66.3636 148.437 66.5909 149.247 66.5909ZM166.054 59.9091V70H161.213V52.5455H165.827V55.625H166.031C166.418 54.6098 167.065 53.8068 167.974 53.2159C168.884 52.6174 169.986 52.3182 171.281 52.3182C172.493 52.3182 173.55 52.5833 174.452 53.1136C175.353 53.6439 176.054 54.4015 176.554 55.3864C177.054 56.3636 177.304 57.5303 177.304 58.8864V70H172.463V59.75C172.471 58.6818 172.198 57.8485 171.645 57.25C171.092 56.6439 170.33 56.3409 169.361 56.3409C168.709 56.3409 168.134 56.4811 167.634 56.7614C167.141 57.0417 166.755 57.4508 166.474 57.9886C166.202 58.5189 166.062 59.1591 166.054 59.9091ZM198.31 52.5455V56.1818H187.798V52.5455H198.31ZM190.185 48.3636H195.026V64.6364C195.026 65.0833 195.094 65.4318 195.23 65.6818C195.366 65.9242 195.556 66.0947 195.798 66.1932C196.048 66.2917 196.336 66.3409 196.662 66.3409C196.889 66.3409 197.116 66.322 197.344 66.2841C197.571 66.2386 197.745 66.2045 197.866 66.1818L198.628 69.7841C198.385 69.8598 198.045 69.947 197.605 70.0455C197.166 70.1515 196.632 70.2159 196.003 70.2386C194.836 70.2841 193.813 70.1288 192.935 69.7727C192.063 69.4167 191.385 68.8636 190.901 68.1136C190.416 67.3636 190.177 66.4167 190.185 65.2727V48.3636ZM206.929 59.9091V70H202.088V46.7273H206.793V55.625H206.997C207.391 54.5947 208.027 53.7879 208.906 53.2045C209.785 52.6136 210.887 52.3182 212.213 52.3182C213.425 52.3182 214.482 52.5833 215.384 53.1136C216.293 53.6364 216.997 54.3902 217.497 55.375C218.005 56.3523 218.255 57.5227 218.247 58.8864V70H213.406V59.75C213.414 58.6742 213.141 57.8371 212.588 57.2386C212.043 56.6402 211.277 56.3409 210.293 56.3409C209.634 56.3409 209.05 56.4811 208.543 56.7614C208.043 57.0417 207.649 57.4508 207.361 57.9886C207.08 58.5189 206.937 59.1591 206.929 59.9091ZM222.307 70V52.5455H227V55.5909H227.182C227.5 54.5076 228.034 53.6894 228.784 53.1364C229.534 52.5758 230.398 52.2955 231.375 52.2955C231.617 52.2955 231.879 52.3106 232.159 52.3409C232.439 52.3712 232.686 52.4129 232.898 52.4659V56.7614C232.67 56.6932 232.356 56.6326 231.955 56.5795C231.553 56.5265 231.186 56.5 230.852 56.5C230.14 56.5 229.504 56.6553 228.943 56.9659C228.39 57.2689 227.951 57.6932 227.625 58.2386C227.307 58.7841 227.148 59.4129 227.148 60.125V70H222.307ZM242.724 70.3409C240.959 70.3409 239.433 69.9659 238.145 69.2159C236.865 68.4583 235.876 67.4053 235.179 66.0568C234.482 64.7008 234.134 63.1288 234.134 61.3409C234.134 59.5379 234.482 57.9621 235.179 56.6136C235.876 55.2576 236.865 54.2045 238.145 53.4545C239.433 52.697 240.959 52.3182 242.724 52.3182C244.49 52.3182 246.012 52.697 247.293 53.4545C248.58 54.2045 249.573 55.2576 250.27 56.6136C250.967 57.9621 251.315 59.5379 251.315 61.3409C251.315 63.1288 250.967 64.7008 250.27 66.0568C249.573 67.4053 248.58 68.4583 247.293 69.2159C246.012 69.9659 244.49 70.3409 242.724 70.3409ZM242.747 66.5909C243.55 66.5909 244.221 66.3636 244.759 65.9091C245.296 65.447 245.702 64.8182 245.974 64.0227C246.255 63.2273 246.395 62.322 246.395 61.3068C246.395 60.2917 246.255 59.3864 245.974 58.5909C245.702 57.7955 245.296 57.1667 244.759 56.7045C244.221 56.2424 243.55 56.0114 242.747 56.0114C241.937 56.0114 241.255 56.2424 240.702 56.7045C240.156 57.1667 239.743 57.7955 239.463 58.5909C239.19 59.3864 239.054 60.2917 239.054 61.3068C239.054 62.322 239.19 63.2273 239.463 64.0227C239.743 64.8182 240.156 65.447 240.702 65.9091C241.255 66.3636 241.937 66.5909 242.747 66.5909ZM265.906 62.5682V52.5455H270.747V70H266.099V66.8295H265.918C265.524 67.8523 264.868 68.6742 263.952 69.2955C263.043 69.9167 261.933 70.2273 260.622 70.2273C259.455 70.2273 258.429 69.9621 257.543 69.4318C256.656 68.9015 255.963 68.1477 255.463 67.1705C254.971 66.1932 254.721 65.0227 254.713 63.6591V52.5455H259.554V62.7955C259.562 63.8258 259.838 64.6402 260.384 65.2386C260.929 65.8371 261.66 66.1364 262.577 66.1364C263.16 66.1364 263.705 66.0038 264.213 65.7386C264.721 65.4659 265.13 65.0644 265.44 64.5341C265.759 64.0038 265.914 63.3485 265.906 62.5682ZM282.733 76.9091C281.165 76.9091 279.82 76.6932 278.699 76.2614C277.585 75.8371 276.699 75.2576 276.04 74.5227C275.381 73.7879 274.953 72.9621 274.756 72.0455L279.233 71.4432C279.369 71.7917 279.585 72.1174 279.881 72.4205C280.176 72.7235 280.566 72.9659 281.051 73.1477C281.544 73.3371 282.142 73.4318 282.847 73.4318C283.9 73.4318 284.767 73.1742 285.449 72.6591C286.138 72.1515 286.483 71.2992 286.483 70.1023V66.9091H286.278C286.066 67.3939 285.748 67.8523 285.324 68.2841C284.9 68.7159 284.354 69.0682 283.688 69.3409C283.021 69.6136 282.225 69.75 281.301 69.75C279.991 69.75 278.797 69.447 277.722 68.8409C276.653 68.2273 275.801 67.2917 275.165 66.0341C274.536 64.7689 274.222 63.1705 274.222 61.2386C274.222 59.2614 274.544 57.6098 275.188 56.2841C275.831 54.9583 276.688 53.9659 277.756 53.3068C278.831 52.6477 280.009 52.3182 281.29 52.3182C282.267 52.3182 283.085 52.4848 283.744 52.8182C284.403 53.1439 284.934 53.553 285.335 54.0455C285.744 54.5303 286.059 55.0076 286.278 55.4773H286.46V52.5455H291.267V70.1705C291.267 71.6553 290.903 72.8977 290.176 73.8977C289.449 74.8977 288.441 75.6477 287.153 76.1477C285.873 76.6553 284.4 76.9091 282.733 76.9091ZM282.835 66.1136C283.616 66.1136 284.275 65.9205 284.812 65.5341C285.358 65.1402 285.775 64.5795 286.062 63.8523C286.358 63.1174 286.506 62.2386 286.506 61.2159C286.506 60.1932 286.362 59.3068 286.074 58.5568C285.786 57.7992 285.369 57.2121 284.824 56.7955C284.278 56.3788 283.616 56.1705 282.835 56.1705C282.04 56.1705 281.369 56.3864 280.824 56.8182C280.278 57.2424 279.866 57.8333 279.585 58.5909C279.305 59.3485 279.165 60.2235 279.165 61.2159C279.165 62.2235 279.305 63.0947 279.585 63.8295C279.873 64.5568 280.286 65.1212 280.824 65.5227C281.369 65.9167 282.04 66.1136 282.835 66.1136ZM300.21 59.9091V70H295.369V46.7273H300.074V55.625H300.278C300.672 54.5947 301.309 53.7879 302.188 53.2045C303.066 52.6136 304.169 52.3182 305.494 52.3182C306.706 52.3182 307.763 52.5833 308.665 53.1136C309.574 53.6364 310.278 54.3902 310.778 55.375C311.286 56.3523 311.536 57.5227 311.528 58.8864V70H306.688V59.75C306.695 58.6742 306.422 57.8371 305.869 57.2386C305.324 56.6402 304.559 56.3409 303.574 56.3409C302.915 56.3409 302.331 56.4811 301.824 56.7614C301.324 57.0417 300.93 57.4508 300.642 57.9886C300.362 58.5189 300.218 59.1591 300.21 59.9091ZM326.688 70L321.938 52.5455H326.835L329.54 64.2727H329.699L332.517 52.5455H337.324L340.188 64.2045H340.335L342.994 52.5455H347.881L343.142 70H338.017L335.017 59.0227H334.801L331.801 70H326.688ZM350.713 70V52.5455H355.406V55.5909H355.588C355.906 54.5076 356.44 53.6894 357.19 53.1364C357.94 52.5758 358.804 52.2955 359.781 52.2955C360.024 52.2955 360.285 52.3106 360.565 52.3409C360.846 52.3712 361.092 52.4129 361.304 52.4659V56.7614C361.077 56.6932 360.762 56.6326 360.361 56.5795C359.959 56.5265 359.592 56.5 359.259 56.5C358.546 56.5 357.91 56.6553 357.349 56.9659C356.796 57.2689 356.357 57.6932 356.031 58.2386C355.713 58.7841 355.554 59.4129 355.554 60.125V70H350.713ZM364.057 70V52.5455H368.898V70H364.057ZM366.489 50.2955C365.769 50.2955 365.152 50.0568 364.636 49.5795C364.129 49.0947 363.875 48.5152 363.875 47.8409C363.875 47.1742 364.129 46.6023 364.636 46.125C365.152 45.6402 365.769 45.3977 366.489 45.3977C367.208 45.3977 367.822 45.6402 368.33 46.125C368.845 46.6023 369.102 47.1742 369.102 47.8409C369.102 48.5152 368.845 49.0947 368.33 49.5795C367.822 50.0568 367.208 50.2955 366.489 50.2955ZM382.31 52.5455V56.1818H371.798V52.5455H382.31ZM374.185 48.3636H379.026V64.6364C379.026 65.0833 379.094 65.4318 379.23 65.6818C379.366 65.9242 379.556 66.0947 379.798 66.1932C380.048 66.2917 380.336 66.3409 380.662 66.3409C380.889 66.3409 381.116 66.322 381.344 66.2841C381.571 66.2386 381.745 66.2045 381.866 66.1818L382.628 69.7841C382.385 69.8598 382.045 69.947 381.605 70.0455C381.166 70.1515 380.632 70.2159 380.003 70.2386C378.836 70.2841 377.813 70.1288 376.935 69.7727C376.063 69.4167 375.385 68.8636 374.901 68.1136C374.416 67.3636 374.177 66.4167 374.185 65.2727V48.3636ZM385.713 70V52.5455H390.554V70H385.713ZM388.145 50.2955C387.425 50.2955 386.808 50.0568 386.293 49.5795C385.785 49.0947 385.531 48.5152 385.531 47.8409C385.531 47.1742 385.785 46.6023 386.293 46.125C386.808 45.6402 387.425 45.3977 388.145 45.3977C388.865 45.3977 389.478 45.6402 389.986 46.125C390.501 46.6023 390.759 47.1742 390.759 47.8409C390.759 48.5152 390.501 49.0947 389.986 49.5795C389.478 50.0568 388.865 50.2955 388.145 50.2955ZM399.523 59.9091V70H394.682V52.5455H399.295V55.625H399.5C399.886 54.6098 400.534 53.8068 401.443 53.2159C402.352 52.6174 403.455 52.3182 404.75 52.3182C405.962 52.3182 407.019 52.5833 407.92 53.1136C408.822 53.6439 409.523 54.4015 410.023 55.3864C410.523 56.3636 410.773 57.5303 410.773 58.8864V70H405.932V59.75C405.939 58.6818 405.667 57.8485 405.114 57.25C404.561 56.6439 403.799 56.3409 402.83 56.3409C402.178 56.3409 401.602 56.4811 401.102 56.7614C400.61 57.0417 400.223 57.4508 399.943 57.9886C399.67 58.5189 399.53 59.1591 399.523 59.9091ZM422.702 76.9091C421.134 76.9091 419.789 76.6932 418.668 76.2614C417.554 75.8371 416.668 75.2576 416.009 74.5227C415.349 73.7879 414.921 72.9621 414.724 72.0455L419.202 71.4432C419.338 71.7917 419.554 72.1174 419.849 72.4205C420.145 72.7235 420.535 72.9659 421.02 73.1477C421.512 73.3371 422.111 73.4318 422.815 73.4318C423.868 73.4318 424.736 73.1742 425.418 72.6591C426.107 72.1515 426.452 71.2992 426.452 70.1023V66.9091H426.247C426.035 67.3939 425.717 67.8523 425.293 68.2841C424.868 68.7159 424.323 69.0682 423.656 69.3409C422.99 69.6136 422.194 69.75 421.27 69.75C419.959 69.75 418.766 69.447 417.69 68.8409C416.622 68.2273 415.77 67.2917 415.134 66.0341C414.505 64.7689 414.19 63.1705 414.19 61.2386C414.19 59.2614 414.512 57.6098 415.156 56.2841C415.8 54.9583 416.656 53.9659 417.724 53.3068C418.8 52.6477 419.978 52.3182 421.259 52.3182C422.236 52.3182 423.054 52.4848 423.713 52.8182C424.372 53.1439 424.902 53.553 425.304 54.0455C425.713 54.5303 426.027 55.0076 426.247 55.4773H426.429V52.5455H431.236V70.1705C431.236 71.6553 430.872 72.8977 430.145 73.8977C429.418 74.8977 428.41 75.6477 427.122 76.1477C425.842 76.6553 424.368 76.9091 422.702 76.9091ZM422.804 66.1136C423.584 66.1136 424.243 65.9205 424.781 65.5341C425.327 65.1402 425.743 64.5795 426.031 63.8523C426.327 63.1174 426.474 62.2386 426.474 61.2159C426.474 60.1932 426.33 59.3068 426.043 58.5568C425.755 57.7992 425.338 57.2121 424.793 56.7955C424.247 56.3788 423.584 56.1705 422.804 56.1705C422.009 56.1705 421.338 56.3864 420.793 56.8182C420.247 57.2424 419.834 57.8333 419.554 58.5909C419.274 59.3485 419.134 60.2235 419.134 61.2159C419.134 62.2235 419.274 63.0947 419.554 63.8295C419.842 64.5568 420.255 65.1212 420.793 65.5227C421.338 65.9167 422.009 66.1136 422.804 66.1136ZM5.90909 115.33C4.79545 115.33 3.80303 115.136 2.93182 114.75C2.06061 114.356 1.37121 113.777 0.863636 113.011C0.363636 112.239 0.113636 111.277 0.113636 110.125C0.113636 109.155 0.291667 108.341 0.647727 107.682C1.00379 107.023 1.48864 106.492 2.10227 106.091C2.71591 105.689 3.41288 105.386 4.19318 105.182C4.98106 104.977 5.80682 104.833 6.67045 104.75C7.68561 104.644 8.50379 104.545 9.125 104.455C9.74621 104.356 10.197 104.212 10.4773 104.023C10.7576 103.833 10.8977 103.553 10.8977 103.182V103.114C10.8977 102.394 10.6705 101.837 10.2159 101.443C9.76894 101.049 9.13258 100.852 8.30682 100.852C7.43561 100.852 6.74242 101.045 6.22727 101.432C5.71212 101.811 5.37121 102.288 5.20455 102.864L0.727273 102.5C0.954546 101.439 1.40152 100.523 2.06818 99.75C2.73485 98.9697 3.5947 98.3712 4.64773 97.9545C5.70833 97.5303 6.93561 97.3182 8.32955 97.3182C9.29924 97.3182 10.2273 97.4318 11.1136 97.6591C12.0076 97.8864 12.7992 98.2386 13.4886 98.7159C14.1856 99.1932 14.7348 99.8068 15.1364 100.557C15.5379 101.299 15.7386 102.189 15.7386 103.227V115H11.1477V112.58H11.0114C10.7311 113.125 10.3561 113.606 9.88636 114.023C9.41667 114.432 8.85227 114.754 8.19318 114.989C7.53409 115.216 6.77273 115.33 5.90909 115.33ZM7.29545 111.989C8.00758 111.989 8.63636 111.848 9.18182 111.568C9.72727 111.28 10.1553 110.894 10.4659 110.409C10.7765 109.924 10.9318 109.375 10.9318 108.761V106.909C10.7803 107.008 10.572 107.098 10.3068 107.182C10.0492 107.258 9.75758 107.33 9.43182 107.398C9.10606 107.458 8.7803 107.515 8.45455 107.568C8.12879 107.614 7.83333 107.655 7.56818 107.693C7 107.777 6.50379 107.909 6.07955 108.091C5.6553 108.273 5.32576 108.519 5.09091 108.83C4.85606 109.133 4.73864 109.511 4.73864 109.966C4.73864 110.625 4.97727 111.129 5.45455 111.477C5.93939 111.818 6.55303 111.989 7.29545 111.989ZM24.5852 104.909V115H19.7443V97.5455H24.358V100.625H24.5625C24.9489 99.6098 25.5966 98.8068 26.5057 98.2159C27.4148 97.6174 28.517 97.3182 29.8125 97.3182C31.0246 97.3182 32.0814 97.5833 32.983 98.1136C33.8845 98.6439 34.5852 99.4015 35.0852 100.386C35.5852 101.364 35.8352 102.53 35.8352 103.886V115H30.9943V104.75C31.0019 103.682 30.7292 102.848 30.1761 102.25C29.6231 101.644 28.8617 101.341 27.892 101.341C27.2405 101.341 26.6648 101.481 26.1648 101.761C25.6723 102.042 25.286 102.451 25.0057 102.989C24.733 103.519 24.5928 104.159 24.5852 104.909ZM46.3324 115.284C45.0066 115.284 43.8059 114.943 42.7301 114.261C41.6619 113.572 40.8134 112.561 40.1847 111.227C39.5634 109.886 39.2528 108.242 39.2528 106.295C39.2528 104.295 39.5748 102.633 40.2188 101.307C40.8627 99.9735 41.7188 98.9773 42.7869 98.3182C43.8627 97.6515 45.0407 97.3182 46.321 97.3182C47.2983 97.3182 48.1127 97.4848 48.7642 97.8182C49.4233 98.1439 49.9536 98.553 50.3551 99.0455C50.7642 99.5303 51.0748 100.008 51.2869 100.477H51.4347V91.7273H56.2642V115H51.4915V112.205H51.2869C51.0597 112.689 50.7377 113.17 50.321 113.648C49.9119 114.117 49.3778 114.508 48.7188 114.818C48.0672 115.129 47.2718 115.284 46.3324 115.284ZM47.8665 111.432C48.6468 111.432 49.3059 111.22 49.8438 110.795C50.3892 110.364 50.8059 109.761 51.0938 108.989C51.3892 108.216 51.5369 107.311 51.5369 106.273C51.5369 105.235 51.393 104.333 51.1051 103.568C50.8172 102.803 50.4006 102.212 49.8551 101.795C49.3097 101.379 48.6468 101.17 47.8665 101.17C47.071 101.17 46.4006 101.386 45.8551 101.818C45.3097 102.25 44.8968 102.848 44.6165 103.614C44.3362 104.379 44.196 105.265 44.196 106.273C44.196 107.288 44.3362 108.186 44.6165 108.966C44.9044 109.739 45.3172 110.345 45.8551 110.784C46.4006 111.216 47.071 111.432 47.8665 111.432ZM68.1506 115V97.5455H72.9915V115H68.1506ZM70.5824 95.2955C69.8627 95.2955 69.2453 95.0568 68.7301 94.5795C68.2225 94.0947 67.9688 93.5152 67.9688 92.8409C67.9688 92.1742 68.2225 91.6023 68.7301 91.125C69.2453 90.6402 69.8627 90.3977 70.5824 90.3977C71.3021 90.3977 71.9157 90.6402 72.4233 91.125C72.9384 91.6023 73.196 92.1742 73.196 92.8409C73.196 93.5152 72.9384 94.0947 72.4233 94.5795C71.9157 95.0568 71.3021 95.2955 70.5824 95.2955ZM81.9602 104.909V115H77.1193V97.5455H81.733V100.625H81.9375C82.3239 99.6098 82.9716 98.8068 83.8807 98.2159C84.7898 97.6174 85.892 97.3182 87.1875 97.3182C88.3996 97.3182 89.4564 97.5833 90.358 98.1136C91.2595 98.6439 91.9602 99.4015 92.4602 100.386C92.9602 101.364 93.2102 102.53 93.2102 103.886V115H88.3693V104.75C88.3769 103.682 88.1042 102.848 87.5511 102.25C86.9981 101.644 86.2367 101.341 85.267 101.341C84.6155 101.341 84.0398 101.481 83.5398 101.761C83.0473 102.042 82.661 102.451 82.3807 102.989C82.108 103.519 81.9678 104.159 81.9602 104.909ZM111.798 102.523L107.366 102.795C107.291 102.417 107.128 102.076 106.878 101.773C106.628 101.462 106.298 101.216 105.889 101.034C105.488 100.845 105.007 100.75 104.446 100.75C103.696 100.75 103.063 100.909 102.548 101.227C102.033 101.538 101.776 101.955 101.776 102.477C101.776 102.894 101.942 103.246 102.276 103.534C102.609 103.822 103.181 104.053 103.991 104.227L107.151 104.864C108.848 105.212 110.113 105.773 110.946 106.545C111.779 107.318 112.196 108.333 112.196 109.591C112.196 110.735 111.859 111.739 111.185 112.602C110.518 113.466 109.601 114.14 108.435 114.625C107.276 115.102 105.938 115.341 104.423 115.341C102.113 115.341 100.272 114.86 98.9006 113.898C97.5369 112.928 96.7377 111.61 96.5028 109.943L101.264 109.693C101.408 110.398 101.757 110.936 102.31 111.307C102.863 111.67 103.571 111.852 104.435 111.852C105.283 111.852 105.965 111.689 106.48 111.364C107.003 111.03 107.268 110.602 107.276 110.08C107.268 109.64 107.082 109.28 106.719 109C106.355 108.712 105.795 108.492 105.037 108.341L102.014 107.739C100.31 107.398 99.0407 106.807 98.2074 105.966C97.3816 105.125 96.9688 104.053 96.9688 102.75C96.9688 101.629 97.2718 100.663 97.8778 99.8523C98.4915 99.0417 99.3513 98.4167 100.457 97.9773C101.571 97.5379 102.874 97.3182 104.366 97.3182C106.571 97.3182 108.306 97.7841 109.571 98.7159C110.844 99.6477 111.586 100.917 111.798 102.523ZM115.494 115V97.5455H120.335V115H115.494ZM117.926 95.2955C117.206 95.2955 116.589 95.0568 116.074 94.5795C115.566 94.0947 115.312 93.5152 115.312 92.8409C115.312 92.1742 115.566 91.6023 116.074 91.125C116.589 90.6402 117.206 90.3977 117.926 90.3977C118.646 90.3977 119.259 90.6402 119.767 91.125C120.282 91.6023 120.54 92.1742 120.54 92.8409C120.54 93.5152 120.282 94.0947 119.767 94.5795C119.259 95.0568 118.646 95.2955 117.926 95.2955ZM132.327 121.909C130.759 121.909 129.414 121.693 128.293 121.261C127.179 120.837 126.293 120.258 125.634 119.523C124.974 118.788 124.546 117.962 124.349 117.045L128.827 116.443C128.963 116.792 129.179 117.117 129.474 117.42C129.77 117.723 130.16 117.966 130.645 118.148C131.137 118.337 131.736 118.432 132.44 118.432C133.493 118.432 134.361 118.174 135.043 117.659C135.732 117.152 136.077 116.299 136.077 115.102V111.909H135.872C135.66 112.394 135.342 112.852 134.918 113.284C134.493 113.716 133.948 114.068 133.281 114.341C132.615 114.614 131.819 114.75 130.895 114.75C129.584 114.75 128.391 114.447 127.315 113.841C126.247 113.227 125.395 112.292 124.759 111.034C124.13 109.769 123.815 108.17 123.815 106.239C123.815 104.261 124.137 102.61 124.781 101.284C125.425 99.9583 126.281 98.9659 127.349 98.3068C128.425 97.6477 129.603 97.3182 130.884 97.3182C131.861 97.3182 132.679 97.4848 133.338 97.8182C133.997 98.1439 134.527 98.553 134.929 99.0455C135.338 99.5303 135.652 100.008 135.872 100.477H136.054V97.5455H140.861V115.17C140.861 116.655 140.497 117.898 139.77 118.898C139.043 119.898 138.035 120.648 136.747 121.148C135.467 121.655 133.993 121.909 132.327 121.909ZM132.429 111.114C133.209 111.114 133.868 110.92 134.406 110.534C134.952 110.14 135.368 109.58 135.656 108.852C135.952 108.117 136.099 107.239 136.099 106.216C136.099 105.193 135.955 104.307 135.668 103.557C135.38 102.799 134.963 102.212 134.418 101.795C133.872 101.379 133.209 101.17 132.429 101.17C131.634 101.17 130.963 101.386 130.418 101.818C129.872 102.242 129.459 102.833 129.179 103.591C128.899 104.348 128.759 105.223 128.759 106.216C128.759 107.223 128.899 108.095 129.179 108.83C129.467 109.557 129.88 110.121 130.418 110.523C130.963 110.917 131.634 111.114 132.429 111.114ZM149.804 104.909V115H144.963V91.7273H149.668V100.625H149.872C150.266 99.5947 150.902 98.7879 151.781 98.2045C152.66 97.6136 153.762 97.3182 155.088 97.3182C156.3 97.3182 157.357 97.5833 158.259 98.1136C159.168 98.6364 159.872 99.3902 160.372 100.375C160.88 101.352 161.13 102.523 161.122 103.886V115H156.281V104.75C156.289 103.674 156.016 102.837 155.463 102.239C154.918 101.64 154.152 101.341 153.168 101.341C152.509 101.341 151.925 101.481 151.418 101.761C150.918 102.042 150.524 102.451 150.236 102.989C149.955 103.519 149.812 104.159 149.804 104.909ZM174.466 97.5455V101.182H163.955V97.5455H174.466ZM166.341 93.3636H171.182V109.636C171.182 110.083 171.25 110.432 171.386 110.682C171.523 110.924 171.712 111.095 171.955 111.193C172.205 111.292 172.492 111.341 172.818 111.341C173.045 111.341 173.273 111.322 173.5 111.284C173.727 111.239 173.902 111.205 174.023 111.182L174.784 114.784C174.542 114.86 174.201 114.947 173.761 115.045C173.322 115.152 172.788 115.216 172.159 115.239C170.992 115.284 169.97 115.129 169.091 114.773C168.22 114.417 167.542 113.864 167.057 113.114C166.572 112.364 166.333 111.417 166.341 110.273V93.3636ZM187.256 97.5455V101.182H176.483V97.5455H187.256ZM178.949 115V96.2841C178.949 95.0189 179.195 93.9697 179.688 93.1364C180.188 92.303 180.869 91.678 181.733 91.2614C182.597 90.8447 183.578 90.6364 184.676 90.6364C185.419 90.6364 186.097 90.6932 186.71 90.8068C187.331 90.9205 187.794 91.0227 188.097 91.1136L187.233 94.75C187.044 94.6894 186.809 94.6326 186.528 94.5795C186.256 94.5265 185.975 94.5 185.688 94.5C184.975 94.5 184.479 94.6667 184.199 95C183.919 95.3258 183.778 95.7841 183.778 96.375V115H178.949ZM201.656 107.568V97.5455H206.497V115H201.849V111.83H201.668C201.274 112.852 200.618 113.674 199.702 114.295C198.793 114.917 197.683 115.227 196.372 115.227C195.205 115.227 194.179 114.962 193.293 114.432C192.406 113.902 191.713 113.148 191.213 112.17C190.721 111.193 190.471 110.023 190.463 108.659V97.5455H195.304V107.795C195.312 108.826 195.588 109.64 196.134 110.239C196.679 110.837 197.41 111.136 198.327 111.136C198.91 111.136 199.455 111.004 199.963 110.739C200.471 110.466 200.88 110.064 201.19 109.534C201.509 109.004 201.664 108.348 201.656 107.568ZM215.46 91.7273V115H210.619V91.7273H215.46ZM235.199 115.341C233.403 115.341 231.858 114.977 230.562 114.25C229.275 113.515 228.282 112.477 227.585 111.136C226.888 109.788 226.54 108.193 226.54 106.352C226.54 104.557 226.888 102.981 227.585 101.625C228.282 100.269 229.263 99.2121 230.528 98.4545C231.801 97.697 233.294 97.3182 235.006 97.3182C236.157 97.3182 237.229 97.5038 238.222 97.875C239.222 98.2386 240.093 98.7879 240.835 99.5227C241.585 100.258 242.169 101.182 242.585 102.295C243.002 103.402 243.21 104.697 243.21 106.182V107.511H228.472V104.511H238.653C238.653 103.814 238.502 103.197 238.199 102.659C237.896 102.121 237.475 101.701 236.938 101.398C236.407 101.087 235.79 100.932 235.085 100.932C234.35 100.932 233.699 101.102 233.131 101.443C232.57 101.777 232.131 102.227 231.812 102.795C231.494 103.356 231.331 103.981 231.324 104.67V107.523C231.324 108.386 231.483 109.133 231.801 109.761C232.127 110.39 232.585 110.875 233.176 111.216C233.767 111.557 234.468 111.727 235.278 111.727C235.816 111.727 236.309 111.652 236.756 111.5C237.203 111.348 237.585 111.121 237.903 110.818C238.222 110.515 238.464 110.144 238.631 109.705L243.108 110C242.881 111.076 242.415 112.015 241.71 112.818C241.013 113.614 240.112 114.235 239.006 114.682C237.907 115.121 236.638 115.341 235.199 115.341ZM251.46 104.909V115H246.619V97.5455H251.233V100.625H251.438C251.824 99.6098 252.472 98.8068 253.381 98.2159C254.29 97.6174 255.392 97.3182 256.688 97.3182C257.9 97.3182 258.956 97.5833 259.858 98.1136C260.759 98.6439 261.46 99.4015 261.96 100.386C262.46 101.364 262.71 102.53 262.71 103.886V115H257.869V104.75C257.877 103.682 257.604 102.848 257.051 102.25C256.498 101.644 255.737 101.341 254.767 101.341C254.116 101.341 253.54 101.481 253.04 101.761C252.547 102.042 252.161 102.451 251.881 102.989C251.608 103.519 251.468 104.159 251.46 104.909ZM274.639 121.909C273.071 121.909 271.726 121.693 270.605 121.261C269.491 120.837 268.605 120.258 267.946 119.523C267.287 118.788 266.859 117.962 266.662 117.045L271.139 116.443C271.276 116.792 271.491 117.117 271.787 117.42C272.082 117.723 272.473 117.966 272.957 118.148C273.45 118.337 274.048 118.432 274.753 118.432C275.806 118.432 276.673 118.174 277.355 117.659C278.045 117.152 278.389 116.299 278.389 115.102V111.909H278.185C277.973 112.394 277.654 112.852 277.23 113.284C276.806 113.716 276.26 114.068 275.594 114.341C274.927 114.614 274.132 114.75 273.207 114.75C271.897 114.75 270.704 114.447 269.628 113.841C268.56 113.227 267.707 112.292 267.071 111.034C266.442 109.769 266.128 108.17 266.128 106.239C266.128 104.261 266.45 102.61 267.094 101.284C267.738 99.9583 268.594 98.9659 269.662 98.3068C270.738 97.6477 271.916 97.3182 273.196 97.3182C274.173 97.3182 274.991 97.4848 275.651 97.8182C276.31 98.1439 276.84 98.553 277.241 99.0455C277.651 99.5303 277.965 100.008 278.185 100.477H278.366V97.5455H283.173V115.17C283.173 116.655 282.81 117.898 282.082 118.898C281.355 119.898 280.348 120.648 279.06 121.148C277.779 121.655 276.306 121.909 274.639 121.909ZM274.741 111.114C275.522 111.114 276.181 110.92 276.719 110.534C277.264 110.14 277.681 109.58 277.969 108.852C278.264 108.117 278.412 107.239 278.412 106.216C278.412 105.193 278.268 104.307 277.98 103.557C277.692 102.799 277.276 102.212 276.73 101.795C276.185 101.379 275.522 101.17 274.741 101.17C273.946 101.17 273.276 101.386 272.73 101.818C272.185 102.242 271.772 102.833 271.491 103.591C271.211 104.348 271.071 105.223 271.071 106.216C271.071 107.223 271.211 108.095 271.491 108.83C271.779 109.557 272.192 110.121 272.73 110.523C273.276 110.917 273.946 111.114 274.741 111.114ZM292.253 115.33C291.139 115.33 290.147 115.136 289.276 114.75C288.404 114.356 287.715 113.777 287.207 113.011C286.707 112.239 286.457 111.277 286.457 110.125C286.457 109.155 286.635 108.341 286.991 107.682C287.348 107.023 287.832 106.492 288.446 106.091C289.06 105.689 289.757 105.386 290.537 105.182C291.325 104.977 292.151 104.833 293.014 104.75C294.029 104.644 294.848 104.545 295.469 104.455C296.09 104.356 296.541 104.212 296.821 104.023C297.101 103.833 297.241 103.553 297.241 103.182V103.114C297.241 102.394 297.014 101.837 296.56 101.443C296.113 101.049 295.476 100.852 294.651 100.852C293.779 100.852 293.086 101.045 292.571 101.432C292.056 101.811 291.715 102.288 291.548 102.864L287.071 102.5C287.298 101.439 287.745 100.523 288.412 99.75C289.079 98.9697 289.938 98.3712 290.991 97.9545C292.052 97.5303 293.279 97.3182 294.673 97.3182C295.643 97.3182 296.571 97.4318 297.457 97.6591C298.351 97.8864 299.143 98.2386 299.832 98.7159C300.529 99.1932 301.079 99.8068 301.48 100.557C301.882 101.299 302.082 102.189 302.082 103.227V115H297.491V112.58H297.355C297.075 113.125 296.7 113.606 296.23 114.023C295.76 114.432 295.196 114.754 294.537 114.989C293.878 115.216 293.116 115.33 292.253 115.33ZM293.639 111.989C294.351 111.989 294.98 111.848 295.526 111.568C296.071 111.28 296.499 110.894 296.81 110.409C297.12 109.924 297.276 109.375 297.276 108.761V106.909C297.124 107.008 296.916 107.098 296.651 107.182C296.393 107.258 296.101 107.33 295.776 107.398C295.45 107.458 295.124 107.515 294.798 107.568C294.473 107.614 294.177 107.655 293.912 107.693C293.344 107.777 292.848 107.909 292.423 108.091C291.999 108.273 291.67 108.519 291.435 108.83C291.2 109.133 291.082 109.511 291.082 109.966C291.082 110.625 291.321 111.129 291.798 111.477C292.283 111.818 292.897 111.989 293.639 111.989ZM313.952 121.909C312.384 121.909 311.039 121.693 309.918 121.261C308.804 120.837 307.918 120.258 307.259 119.523C306.599 118.788 306.171 117.962 305.974 117.045L310.452 116.443C310.588 116.792 310.804 117.117 311.099 117.42C311.395 117.723 311.785 117.966 312.27 118.148C312.762 118.337 313.361 118.432 314.065 118.432C315.118 118.432 315.986 118.174 316.668 117.659C317.357 117.152 317.702 116.299 317.702 115.102V111.909H317.497C317.285 112.394 316.967 112.852 316.543 113.284C316.118 113.716 315.573 114.068 314.906 114.341C314.24 114.614 313.444 114.75 312.52 114.75C311.209 114.75 310.016 114.447 308.94 113.841C307.872 113.227 307.02 112.292 306.384 111.034C305.755 109.769 305.44 108.17 305.44 106.239C305.44 104.261 305.762 102.61 306.406 101.284C307.05 99.9583 307.906 98.9659 308.974 98.3068C310.05 97.6477 311.228 97.3182 312.509 97.3182C313.486 97.3182 314.304 97.4848 314.963 97.8182C315.622 98.1439 316.152 98.553 316.554 99.0455C316.963 99.5303 317.277 100.008 317.497 100.477H317.679V97.5455H322.486V115.17C322.486 116.655 322.122 117.898 321.395 118.898C320.668 119.898 319.66 120.648 318.372 121.148C317.092 121.655 315.618 121.909 313.952 121.909ZM314.054 111.114C314.834 111.114 315.493 110.92 316.031 110.534C316.577 110.14 316.993 109.58 317.281 108.852C317.577 108.117 317.724 107.239 317.724 106.216C317.724 105.193 317.58 104.307 317.293 103.557C317.005 102.799 316.588 102.212 316.043 101.795C315.497 101.379 314.834 101.17 314.054 101.17C313.259 101.17 312.588 101.386 312.043 101.818C311.497 102.242 311.084 102.833 310.804 103.591C310.524 104.348 310.384 105.223 310.384 106.216C310.384 107.223 310.524 108.095 310.804 108.83C311.092 109.557 311.505 110.121 312.043 110.523C312.588 110.917 313.259 111.114 314.054 111.114ZM334.543 115.341C332.747 115.341 331.202 114.977 329.906 114.25C328.618 113.515 327.626 112.477 326.929 111.136C326.232 109.788 325.884 108.193 325.884 106.352C325.884 104.557 326.232 102.981 326.929 101.625C327.626 100.269 328.607 99.2121 329.872 98.4545C331.145 97.697 332.637 97.3182 334.349 97.3182C335.501 97.3182 336.573 97.5038 337.565 97.875C338.565 98.2386 339.437 98.7879 340.179 99.5227C340.929 100.258 341.512 101.182 341.929 102.295C342.346 103.402 342.554 104.697 342.554 106.182V107.511H327.815V104.511H337.997C337.997 103.814 337.846 103.197 337.543 102.659C337.24 102.121 336.819 101.701 336.281 101.398C335.751 101.087 335.134 100.932 334.429 100.932C333.694 100.932 333.043 101.102 332.474 101.443C331.914 101.777 331.474 102.227 331.156 102.795C330.838 103.356 330.675 103.981 330.668 104.67V107.523C330.668 108.386 330.827 109.133 331.145 109.761C331.471 110.39 331.929 110.875 332.52 111.216C333.111 111.557 333.812 111.727 334.622 111.727C335.16 111.727 335.652 111.652 336.099 111.5C336.546 111.348 336.929 111.121 337.247 110.818C337.565 110.515 337.808 110.144 337.974 109.705L342.452 110C342.224 111.076 341.759 112.015 341.054 112.818C340.357 113.614 339.455 114.235 338.349 114.682C337.251 115.121 335.982 115.341 334.543 115.341ZM345.963 115V97.5455H350.577V100.625H350.781C351.145 99.6023 351.751 98.7955 352.599 98.2045C353.448 97.6136 354.463 97.3182 355.645 97.3182C356.842 97.3182 357.861 97.6174 358.702 98.2159C359.543 98.8068 360.103 99.6098 360.384 100.625H360.565C360.921 99.625 361.565 98.8258 362.497 98.2273C363.437 97.6212 364.546 97.3182 365.827 97.3182C367.455 97.3182 368.777 97.8371 369.793 98.875C370.815 99.9053 371.327 101.367 371.327 103.261V115H366.497V104.216C366.497 103.246 366.24 102.519 365.724 102.034C365.209 101.549 364.565 101.307 363.793 101.307C362.914 101.307 362.228 101.587 361.736 102.148C361.243 102.701 360.997 103.432 360.997 104.341V115H356.304V104.114C356.304 103.258 356.058 102.576 355.565 102.068C355.08 101.561 354.44 101.307 353.645 101.307C353.107 101.307 352.622 101.443 352.19 101.716C351.766 101.981 351.429 102.356 351.179 102.841C350.929 103.318 350.804 103.879 350.804 104.523V115H345.963ZM383.355 115.341C381.56 115.341 380.014 114.977 378.719 114.25C377.431 113.515 376.438 112.477 375.741 111.136C375.045 109.788 374.696 108.193 374.696 106.352C374.696 104.557 375.045 102.981 375.741 101.625C376.438 100.269 377.42 99.2121 378.685 98.4545C379.957 97.697 381.45 97.3182 383.162 97.3182C384.313 97.3182 385.385 97.5038 386.378 97.875C387.378 98.2386 388.249 98.7879 388.991 99.5227C389.741 100.258 390.325 101.182 390.741 102.295C391.158 103.402 391.366 104.697 391.366 106.182V107.511H376.628V104.511H386.81C386.81 103.814 386.658 103.197 386.355 102.659C386.052 102.121 385.632 101.701 385.094 101.398C384.563 101.087 383.946 100.932 383.241 100.932C382.507 100.932 381.855 101.102 381.287 101.443C380.726 101.777 380.287 102.227 379.969 102.795C379.651 103.356 379.488 103.981 379.48 104.67V107.523C379.48 108.386 379.639 109.133 379.957 109.761C380.283 110.39 380.741 110.875 381.332 111.216C381.923 111.557 382.624 111.727 383.435 111.727C383.973 111.727 384.465 111.652 384.912 111.5C385.359 111.348 385.741 111.121 386.06 110.818C386.378 110.515 386.62 110.144 386.787 109.705L391.264 110C391.037 111.076 390.571 112.015 389.866 112.818C389.17 113.614 388.268 114.235 387.162 114.682C386.063 115.121 384.795 115.341 383.355 115.341ZM399.616 104.909V115H394.776V97.5455H399.389V100.625H399.594C399.98 99.6098 400.628 98.8068 401.537 98.2159C402.446 97.6174 403.548 97.3182 404.844 97.3182C406.056 97.3182 407.113 97.5833 408.014 98.1136C408.916 98.6439 409.616 99.4015 410.116 100.386C410.616 101.364 410.866 102.53 410.866 103.886V115H406.026V104.75C406.033 103.682 405.76 102.848 405.207 102.25C404.654 101.644 403.893 101.341 402.923 101.341C402.272 101.341 401.696 101.481 401.196 101.761C400.704 102.042 400.317 102.451 400.037 102.989C399.764 103.519 399.624 104.159 399.616 104.909ZM424.216 97.5455V101.182H413.705V97.5455H424.216ZM416.091 93.3636H420.932V109.636C420.932 110.083 421 110.432 421.136 110.682C421.273 110.924 421.462 111.095 421.705 111.193C421.955 111.292 422.242 111.341 422.568 111.341C422.795 111.341 423.023 111.322 423.25 111.284C423.477 111.239 423.652 111.205 423.773 111.182L424.534 114.784C424.292 114.86 423.951 114.947 423.511 115.045C423.072 115.152 422.538 115.216 421.909 115.239C420.742 115.284 419.72 115.129 418.841 114.773C417.97 114.417 417.292 113.864 416.807 113.114C416.322 112.364 416.083 111.417 416.091 110.273V93.3636ZM441.923 102.523L437.491 102.795C437.416 102.417 437.253 102.076 437.003 101.773C436.753 101.462 436.423 101.216 436.014 101.034C435.613 100.845 435.132 100.75 434.571 100.75C433.821 100.75 433.188 100.909 432.673 101.227C432.158 101.538 431.901 101.955 431.901 102.477C431.901 102.894 432.067 103.246 432.401 103.534C432.734 103.822 433.306 104.053 434.116 104.227L437.276 104.864C438.973 105.212 440.238 105.773 441.071 106.545C441.904 107.318 442.321 108.333 442.321 109.591C442.321 110.735 441.984 111.739 441.31 112.602C440.643 113.466 439.726 114.14 438.56 114.625C437.401 115.102 436.063 115.341 434.548 115.341C432.238 115.341 430.397 114.86 429.026 113.898C427.662 112.928 426.863 111.61 426.628 109.943L431.389 109.693C431.533 110.398 431.882 110.936 432.435 111.307C432.988 111.67 433.696 111.852 434.56 111.852C435.408 111.852 436.09 111.689 436.605 111.364C437.128 111.03 437.393 110.602 437.401 110.08C437.393 109.64 437.207 109.28 436.844 109C436.48 108.712 435.92 108.492 435.162 108.341L432.139 107.739C430.435 107.398 429.166 106.807 428.332 105.966C427.507 105.125 427.094 104.053 427.094 102.75C427.094 101.629 427.397 100.663 428.003 99.8523C428.616 99.0417 429.476 98.4167 430.582 97.9773C431.696 97.5379 432.999 97.3182 434.491 97.3182C436.696 97.3182 438.431 97.7841 439.696 98.7159C440.969 99.6477 441.711 100.917 441.923 102.523Z" fill="white"/>
</svg>
