<svg width="64" height="64" viewBox="0 0 64 64" fill="none" xmlns="http://www.w3.org/2000/svg">
<path d="M62.1888 53.152C62.1952 58.1312 58.1632 62.176 53.184 62.1824C53.1776 62.1824 53.1648 62.1824 53.1584 62.1824H10.8672C5.8624 62.1824 1.8112 58.176 1.8112 53.152V10.8672C1.8112 5.86879 5.8624 1.81119 10.8672 1.81119H53.152C58.144 1.82399 62.1824 5.87519 62.1824 10.8672V53.152" fill="#34A853"/>
<path d="M25.536 13.2032C18.8736 13.2032 13.4656 18.6112 13.4592 25.28V38.528C13.4592 45.1968 18.8672 50.5984 25.536 50.5984H38.5344C45.2032 50.5984 50.592 45.1968 50.592 38.528V29.9648C50.592 28.6336 49.5232 27.552 48.192 27.552H46.112C44.8384 27.552 43.8016 26.56 43.712 25.3056L43.6992 25.28C43.6992 18.6112 38.2912 13.2032 31.6224 13.2032H25.536ZM25.2416 22.9952H32.0832C33.3632 22.9952 34.4064 24.032 34.4064 25.3184C34.4 26.5984 33.3632 27.6352 32.0832 27.6416H25.2416C23.9616 27.6352 22.9248 26.5984 22.9184 25.3184C22.9184 24.0384 23.9616 22.9952 25.2416 22.9952ZM25.2224 36.5952H38.944C40.1536 36.5952 41.1456 37.568 41.1456 38.784C41.1456 40 40.1536 40.992 38.944 40.992H25.2224C24.0128 40.992 23.0336 40 23.0336 38.784C23.0336 37.568 24.0128 36.5952 25.2224 36.5952Z" fill="white"/>
</svg>
