<svg width="20" height="20" viewBox="0 0 20 20" fill="none" xmlns="http://www.w3.org/2000/svg">
<path d="M19 10C19 14.9706 14.9706 19 10 19C5.02944 19 1 14.9706 1 10C1 5.02944 5.02944 1 10 1C14.9706 1 19 5.02944 19 10Z" stroke="#34A853" stroke-width="2" stroke-linecap="round" stroke-linejoin="round"/>
<path d="M6.0365 10.2563C5.44115 10.0248 5.14348 9.90901 5.05658 9.74221C4.98124 9.59761 4.98114 9.42536 5.0563 9.28067C5.14301 9.11376 5.44055 8.99765 6.03562 8.76543L12.4234 6.27265C12.9605 6.06302 13.2291 5.9582 13.4008 6.01554C13.5498 6.06533 13.6668 6.1823 13.7166 6.33135C13.7739 6.50298 13.6691 6.77157 13.4595 7.30874L10.9667 13.6965C10.7345 14.2916 10.6184 14.5891 10.4514 14.6758C10.3068 14.751 10.1345 14.7509 9.98991 14.6755C9.82311 14.5886 9.70735 14.291 9.47582 13.6956L8.64039 11.5474C8.5934 11.4265 8.5699 11.3661 8.53361 11.3152C8.50144 11.2701 8.462 11.2307 8.4169 11.1985C8.36602 11.1622 8.3056 11.1387 8.18475 11.0917L6.0365 10.2563Z" stroke="#34A853" stroke-width="2" stroke-linecap="round" stroke-linejoin="round"/>
</svg>
